<?xml version="1.0" standalone="no"?>
<!DOCTYPE svg PUBLIC "-//W3C//DTD SVG 1.1//EN" "http://www.w3.org/Graphics/SVG/1.1/DTD/svg11.dtd" >
<svg xmlns="http://www.w3.org/2000/svg" xmlns:xlink="http://www.w3.org/1999/xlink" version="1.1">
<metadata>
Created by FontForge 20161013 at Fri Jan  1 02:30:17 1904
 By ,,,
(c) 1992, Tilde Ltd. AG Fonts Collection. Created by Andrejs Grinbergs.
</metadata>
<defs>
<font id="AGForeignerLightBoldBold" horiz-adv-x="2277" >
  <font-face 
    font-family="AG Foreigner Light-Bold"
    font-weight="700"
    font-stretch="normal"
    units-per-em="4096"
    panose-1="2 11 -30 0 0 0 0 0 0 0"
    ascent="3276"
    descent="-820"
    x-height="2109"
    cap-height="2859"
    bbox="-90 -909 4096 3617"
    underline-thickness="20"
    underline-position="-163"
    unicode-range="U+0020-2219"
  />
<missing-glyph horiz-adv-x="3072" 
d="M512 0v2560h2048v-2560h-2048zM2494 66v2428h-1916v-2428h1916z" />
    <glyph glyph-name=".notdef" horiz-adv-x="3072" 
d="M512 0v2560h2048v-2560h-2048zM2494 66v2428h-1916v-2428h1916z" />
    <glyph glyph-name=".null" horiz-adv-x="0" 
 />
    <glyph glyph-name="nonmarkingreturn" horiz-adv-x="0" 
 />
    <glyph glyph-name="space" unicode=" " horiz-adv-x="1139" 
 />
    <glyph glyph-name="exclam" unicode="!" horiz-adv-x="1593" 
d="M561 840l-78 2019h631l-86 -2019h-467zM512 0v573h573v-573h-573z" />
    <glyph glyph-name="quotedbl" unicode="&#x22;" horiz-adv-x="1970" 
d="M1110 1835v1024h500v-1024h-500zM360 1835v1024h500v-1024h-500z" />
    <glyph glyph-name="numbersign" unicode="#" 
d="M2023 1167v-327h-376l-119 -840h-361l119 840h-418l-123 -840h-360l119 840h-369v327h414l69 525h-360v327h410l114 840h365l-115 -840h418l115 840h360l-115 -840h332v-327h-381l-69 -525h331zM1401 1692h-418l-70 -525h418z" />
    <glyph glyph-name="dollar" unicode="$" 
d="M1061 1778v639q-225 -103 -225 -357q0 -167 225 -282zM1253 1085v-626q238 100 238 311q0 198 -238 315zM1061 3203h192v-295q365 0 668 -102l-53 -471q-284 123 -582 123q-20 0 -33 -4v-758q291 -116 440.5 -194t272.5 -246.5t123 -440.5q0 -381 -228.5 -591
t-607.5 -257v-336h-192v324q-17 -4 -45 -4q-211 0 -330 21t-403 89l53 517q324 -177 647 -177q49 0 78 9v766q-221 86 -335 138.5t-230 144t-187 235t-71 342.5q0 268 111 453t295.5 283.5t416.5 127.5v303z" />
    <glyph glyph-name="percent" unicode="%" horiz-adv-x="4096" 
d="M2986 279q254 0 254 426q0 174 -54 299.5t-200 125.5t-204 -127.5t-58 -297.5q0 -171 58 -298.5t204 -127.5zM1004 -90l1769 3039h336l-1770 -3039h-335zM1122 1401q-215 0 -371 89t-236.5 259.5t-80.5 404.5t80.5 405t236.5 260t371 89q328 0 504 -197t176 -557
q0 -359 -176.5 -556t-503.5 -197zM1122 1729q145 0 199.5 126t54.5 299q0 175 -54 300.5t-200 125.5t-204 -127.5t-58 -298.5q0 -170 58 -297.5t204 -127.5zM2986 -49q-215 0 -371 89t-236.5 260t-80.5 405t80.5 404.5t236.5 259.5t371 89q327 0 503.5 -197t176.5 -556
t-176.5 -556.5t-503.5 -197.5z" />
    <glyph glyph-name="ampersand" unicode="&#x26;" horiz-adv-x="2957" 
d="M1778 549l-635 708q-348 -180 -348 -458q0 -121 65 -218t176 -150.5t242 -53.5q322 0 500 172zM1270 1798q134 69 253 184.5t119 229.5q0 142 -90.5 218.5t-224.5 76.5q-136 0 -232 -78t-96 -225q0 -56 25.5 -111t60.5 -99.5t84.5 -94.5t100.5 -101zM1589 1503l525 -573
q164 189 180 622h499q-25 -572 -364 -979l512 -573h-705l-192 254q-146 -149 -353 -226t-425 -77q-285 0 -517.5 97t-367.5 286t-135 448q0 270 136.5 459t465.5 328q-154 145 -226.5 226.5t-121.5 194.5t-49 267q0 205 128.5 353t329 223t410.5 75q214 0 401 -68
t304.5 -214.5t117.5 -364.5q0 -270 -139 -434.5t-414 -323.5z" />
    <glyph glyph-name="quotesingle" unicode="'" horiz-adv-x="1139" 
d="M319 1835v1024h500v-1024h-500z" />
    <glyph glyph-name="parenleft" unicode="(" horiz-adv-x="1364" 
d="M815 3097h520q-142 -226 -247.5 -429.5t-183.5 -422t-120.5 -462.5t-42.5 -521q0 -493 153.5 -937t440.5 -898h-520q-323 442 -489 887t-166 948q0 365 75.5 674t217 583t362.5 578z" />
    <glyph glyph-name="parenright" unicode=")" horiz-adv-x="1364" 
d="M545 -573h-516q185 295 316 583.5t204.5 601.5t73.5 650q0 526 -147.5 939t-446.5 896h516q220 -307 362 -579t219.5 -582.5t77.5 -673.5q0 -505 -168.5 -949t-490.5 -886z" />
    <glyph glyph-name="asterisk" unicode="*" 
d="M1982 2073l-569 -127l393 -439l-376 -270l-291 508l-312 -508l-372 270l401 439l-561 127l135 426l545 -234l-66 594h467l-69 -590l544 230z" />
    <glyph glyph-name="plus" unicode="+" horiz-adv-x="2458" 
d="M1016 1249v824h426v-824h827v-426h-827v-823h-426v823h-828v426h828z" />
    <glyph glyph-name="comma" unicode="," horiz-adv-x="1139" 
d="M94 -451l262 1024h594l-372 -1024h-484z" />
    <glyph glyph-name="hyphen" unicode="-" horiz-adv-x="1364" 
d="M1221 877h-1078v450h1078v-450z" />
    <glyph glyph-name="period" unicode="." horiz-adv-x="1139" 
d="M283 0v573h573v-573h-573z" />
    <glyph glyph-name="slash" unicode="/" horiz-adv-x="1593" 
d="M86 -49l999 2957h426l-999 -2957h-426z" />
    <glyph glyph-name="zero" unicode="0" 
d="M1135 377q278 0 352 301.5t74 742.5q0 450 -74 755.5t-352 305.5q-271 0 -344.5 -305.5t-73.5 -755.5q0 -441 73.5 -742.5t344.5 -301.5zM1135 -49q-992 0 -992 1470q0 629 230 1058t762 429q299 0 498 -132t307.5 -347t151 -470t42.5 -538q0 -382 -84 -710t-307 -544
t-608 -216z" />
    <glyph glyph-name="one" unicode="1" 
d="M324 2187l835 672h508v-2859h-573v2208l-484 -393z" />
    <glyph glyph-name="two" unicode="2" 
d="M2068 0h-1900v479q151 141 348.5 325.5t402.5 408.5t345.5 451.5t140.5 408.5q0 185 -138.5 285t-328.5 100q-307 0 -659 -230l-46 475q195 99 412.5 152t435.5 53q276 0 477.5 -93t310.5 -280.5t109 -461.5q0 -214 -97 -431t-247.5 -412t-273.5 -322t-459 -457h1167
v-451z" />
    <glyph glyph-name="three" unicode="3" 
d="M184 45l33 487q335 -131 635 -131q129 0 270.5 43.5t236.5 135.5t95 227q0 446 -631 446h-278v451h262q295 0 465 96.5t170 280.5q0 199 -138 288t-354 89q-331 0 -643 -152l-33 459q365 143 799 143q211 0 425 -61.5t365.5 -226.5t151.5 -445q0 -184 -69.5 -317
t-186 -219.5t-276.5 -147.5v-8q264 -35 404.5 -221t140.5 -459q0 -460 -327.5 -656t-766.5 -196q-422 0 -750 94z" />
    <glyph glyph-name="four" unicode="4" 
d="M582 1020h716v1241h-8zM66 594v463l1069 1802h712v-1839h365v-426h-365v-594h-549v594h-1232z" />
    <glyph glyph-name="five" unicode="5" 
d="M2007 2859v-426h-1102l-12 -610q152 28 262 28q371 0 646.5 -213t275.5 -716q0 -271 -127 -493t-379.5 -350t-607.5 -128q-325 0 -668 82l12 512q345 -144 586 -144q160 0 299 52.5t225 166t86 285.5q0 258 -188.5 377t-466.5 119q-265 0 -512 -78l29 1536h1642z" />
    <glyph glyph-name="six" unicode="6" 
d="M1958 2806l-74 -463q-267 115 -500 115q-340 0 -502.5 -257.5t-176.5 -627.5l8 -8q197 286 553 286q265 0 453.5 -107t285 -305t96.5 -460q0 -478 -239 -753t-711 -275q-374 0 -590 183t-298.5 477t-82.5 671q0 427 108 794t371 599.5t697 232.5q311 0 602 -102z
M1139 1425q-198 0 -291.5 -153t-93.5 -387q0 -140 41.5 -255.5t131 -184t224.5 -68.5q186 0 281.5 150.5t95.5 361.5q0 227 -97.5 381.5t-291.5 154.5z" />
    <glyph glyph-name="seven" unicode="7" 
d="M205 2408v451h1843v-475l-1016 -2384h-622l1060 2408h-1265z" />
    <glyph glyph-name="eight" unicode="8" 
d="M1192 1708q126 46 222.5 166.5t96.5 247.5q0 162 -95 261t-257 99q-169 0 -293.5 -90.5t-124.5 -253.5t124 -258.5t327 -171.5zM1585 1536v4v-8q549 -256 549 -750q0 -416 -269 -623.5t-714 -207.5q-287 0 -515.5 87t-360.5 272.5t-132 463.5q0 453 525 709v8
q-220 99 -347.5 271.5t-127.5 391.5q0 247 116.5 417.5t322.5 253.5t470 83q261 0 479.5 -74.5t348.5 -230t130 -383.5q0 -206 -124 -399t-351 -285zM1081 1253q-174 -83 -269 -192.5t-95 -278.5q0 -175 129 -290t305 -115t293 103.5t117 277.5q0 340 -480 495z" />
    <glyph glyph-name="nine" unicode="9" 
d="M324 53l73 463q269 -115 500 -115q232 0 382 126t220 325.5t78 433.5l-8 8q-99 -147 -235.5 -216.5t-317.5 -69.5q-399 0 -617.5 235t-218.5 637q0 315 104 545.5t317 356.5t529 126q545 0 758 -369t213 -962q0 -427 -107.5 -793.5t-370.5 -599.5t-697 -233
q-312 0 -602 102zM1143 1434q195 0 290 153t95 387q0 221 -99 364.5t-299 143.5q-187 0 -281.5 -151t-94.5 -361q0 -227 97.5 -381.5t291.5 -154.5z" />
    <glyph glyph-name="colon" unicode=":" horiz-adv-x="1139" 
d="M283 1536v573h573v-573h-573zM283 0v573h573v-573h-573z" />
    <glyph glyph-name="semicolon" unicode=";" horiz-adv-x="1139" 
d="M94 -451l262 1024h594l-372 -1024h-484zM283 1536v573h573v-573h-573z" />
    <glyph glyph-name="less" unicode="&#x3c;" horiz-adv-x="2458" 
d="M2269 385v-418l-2081 893v352l2081 893v-417l-1528 -652z" />
    <glyph glyph-name="equal" unicode="=" horiz-adv-x="2458" 
d="M2269 1696v-426h-2081v426h2081zM2269 803v-426h-2081v426h2081z" />
    <glyph glyph-name="greater" unicode="&#x3e;" horiz-adv-x="2458" 
d="M188 385l1528 651l-1528 652v417l2081 -893v-352l-2081 -893v418z" />
    <glyph glyph-name="question" unicode="?" horiz-adv-x="2048" 
d="M250 2318l-45 455q453 135 811 135q249 0 462 -77.5t342.5 -242.5t129.5 -413q0 -188 -88 -333t-261.5 -339.5t-260.5 -338t-87 -328.5h-503q0 262 79.5 436.5t219.5 333.5q55 59 113 121t98.5 117.5t66 121.5t25.5 143q0 191 -136 282t-335 91q-274 0 -631 -164zM717 0
v573h573v-573h-573z" />
    <glyph glyph-name="at" unicode="@" horiz-adv-x="3277" 
d="M1700 1827q-128 0 -234.5 -78.5t-165.5 -200.5t-59 -245q0 -147 83 -241.5t224 -94.5q125 0 230 77.5t165 201.5t60 253q0 147 -82.5 237.5t-220.5 90.5zM2585 586h348q-430 -635 -1295 -635q-372 0 -714 169.5t-557 505.5t-215 804q0 400 205 741t568 539t812 198
q347 0 666.5 -131t520.5 -403.5t201 -669.5q0 -295 -114.5 -516t-286.5 -357.5t-344 -201t-287 -64.5q-91 0 -154.5 55.5t-66.5 157.5h-8q-192 -213 -414 -213q-168 0 -315 86.5t-233.5 242.5t-86.5 347q0 264 113 492t307.5 361.5t423.5 133.5q300 0 475 -262l49 197h344
l-225 -996q-29 -109 -29 -139q0 -61 62 -61q109 0 216.5 79t177 242.5t69.5 403.5q0 310 -155.5 498.5t-395 264.5t-510.5 76q-251 0 -465.5 -88.5t-370 -243.5t-239.5 -354t-84 -415q0 -312 136.5 -564t378.5 -395t545 -143q640 0 947 258z" />
    <glyph glyph-name="A" unicode="A" horiz-adv-x="2957" 
d="M1880 1106l-414 1180h-8l-414 -1180h836zM37 0l1114 2859h647l1122 -2859h-634l-246 655h-1159l-250 -655h-594z" />
    <glyph glyph-name="B" unicode="B" horiz-adv-x="2503" 
d="M905 1278v-827h271q589 0 589 397q0 175 -82 270t-210.5 127.5t-296.5 32.5h-271zM905 2408v-704h234q540 0 540 348q0 222 -148 289t-405 67h-221zM332 0v2859h999q369 0 645.5 -157t276.5 -576q0 -251 -154.5 -421t-415.5 -218v-8q192 -18 342 -106t232 -230t82 -316
q0 -475 -311.5 -651t-696.5 -176h-999z" />
    <glyph glyph-name="C" unicode="C" horiz-adv-x="2503" 
d="M2388 520l25 -479q-384 -90 -652 -90q-469 0 -823 158t-549.5 480t-195.5 791q0 362 108 649t312.5 482.5t493.5 296t654 100.5q345 0 647 -119l-41 -483q-268 152 -618 152q-218 0 -394.5 -77.5t-303 -219t-193.5 -331t-67 -409.5q0 -289 116.5 -522.5t336 -365.5
t517.5 -132q167 0 346.5 34t280.5 85z" />
    <glyph glyph-name="D" unicode="D" horiz-adv-x="2957" 
d="M332 0v2859h782q1651 0 1651 -1429q0 -412 -129.5 -692t-357.5 -441.5t-521.5 -229t-642.5 -67.5h-782zM905 2408v-1957h320q244 0 461 117.5t349 340.5t132 521q0 227 -78 410.5t-210.5 310t-301.5 192t-352 65.5h-320z" />
    <glyph glyph-name="E" unicode="E" 
d="M332 0v2859h1687v-451h-1114v-704h1020v-451h-1020v-802h1123v-451h-1696z" />
    <glyph glyph-name="F" unicode="F" horiz-adv-x="2048" 
d="M332 0v2859h1589v-451h-1016v-704h967v-451h-967v-1253h-573z" />
    <glyph glyph-name="G" unicode="G" horiz-adv-x="2957" 
d="M2601 2789l-37 -483q-329 152 -737 152q-324 0 -559 -134.5t-356 -371.5t-121 -531q0 -289 116.5 -522.5t336 -365.5t517.5 -132q210 0 377 41v746h-606v450h1155v-1540q-543 -147 -926 -147q-469 0 -823 158t-549.5 480t-195.5 791q0 362 108 649t312.5 482.5t493.5 296
t654 100.5q444 0 840 -119z" />
    <glyph glyph-name="H" unicode="H" horiz-adv-x="2957" 
d="M332 0v2859h573v-1155h1147v1155h574v-2859h-574v1253h-1147v-1253h-573z" />
    <glyph glyph-name="I" unicode="I" horiz-adv-x="1139" 
d="M283 0v2859h573v-2859h-573z" />
    <glyph glyph-name="J" unicode="J" horiz-adv-x="1593" 
d="M90 4v496q132 -49 275 -49q244 0 308 137.5t64 365.5v1905h574v-2179q0 -168 -79 -336t-255.5 -280.5t-448.5 -112.5q-231 0 -438 53z" />
    <glyph glyph-name="K" unicode="K" horiz-adv-x="2732" 
d="M332 0v2859h573v-1229l1032 1229h705l-1176 -1348l1225 -1511h-749l-1029 1327h-8v-1327h-573z" />
    <glyph glyph-name="L" unicode="L" horiz-adv-x="2048" 
d="M332 0v2859h573v-2408h1110v-451h-1683z" />
    <glyph glyph-name="M" unicode="M" horiz-adv-x="3867" 
d="M332 0v2859h917l680 -2167h8l680 2167h918v-2859h-549v2359h-8l-770 -2359h-549l-770 2359l-8 -8v-2351h-549z" />
    <glyph glyph-name="N" unicode="N" horiz-adv-x="2957" 
d="M303 0v2859h705l1089 -2138h8v2138h549v-2859h-700l-1094 2138h-8v-2138h-549z" />
    <glyph glyph-name="O" unicode="O" horiz-adv-x="3187" 
d="M193 1438q0 440 161.5 772t477 515t761.5 183q437 0 755 -185.5t482 -519.5t164 -765q0 -434 -163 -771.5t-480.5 -526.5t-757.5 -189q-447 0 -763 186.5t-476.5 522.5t-160.5 778zM791 1438q0 -274 82.5 -510t262.5 -381.5t457 -145.5t458 145.5t263 381.5t82 510
q0 265 -85.5 498.5t-267 377.5t-450.5 144t-450 -144t-266.5 -377.5t-85.5 -498.5z" />
    <glyph glyph-name="P" unicode="P" 
d="M856 2408v-872h201q545 0 545 426q0 235 -150.5 340.5t-394.5 105.5h-201zM283 0v2859h725q533 0 862.5 -195t329.5 -669q0 -473 -301.5 -691.5t-800.5 -218.5h-242v-1085h-573z" />
    <glyph glyph-name="Q" unicode="Q" horiz-adv-x="3187" 
d="M2920 -541h-692l-499 500q-41 -8 -136 -8q-447 0 -763 186.5t-476.5 522.5t-160.5 778q0 440 161.5 772t477 515t761.5 183q437 0 755 -185.5t482 -519.5t164 -765q0 -306 -82 -568.5t-245 -459.5t-394 -308zM791 1438q0 -274 82.5 -510t262.5 -381.5t457 -145.5
t458 145.5t263 381.5t82 510q0 265 -85.5 498.5t-267 377.5t-450.5 144t-450 -144t-266.5 -377.5t-85.5 -498.5z" />
    <glyph glyph-name="R" unicode="R" horiz-adv-x="2503" 
d="M856 2408v-770h188q272 0 439.5 79t167.5 319q0 231 -164 301.5t-443 70.5h-188zM283 0v2859h618h90q292 0 491 -18.5t376.5 -91.5t284 -233.5t106.5 -430.5q0 -168 -71.5 -310t-206 -236t-312.5 -118v-8q177 -14 303 -295l459 -1118h-639l-344 893q-42 109 -88.5 173
t-118 93t-191.5 29h-184v-1188h-573z" />
    <glyph glyph-name="S" unicode="S" 
d="M1921 2806l-53 -471q-284 123 -582 123q-180 0 -315 -93t-135 -305q0 -160 101 -215.5t459 -204.5t525.5 -324t167.5 -501q0 -298 -143 -493t-385 -283t-545 -88q-211 0 -330 21t-403 89l53 517q324 -177 647 -177q190 0 349 96t159 273q0 179 -123 252t-459.5 213
t-503.5 310t-167 491q0 302 139 498.5t366 285t494 88.5q375 0 684 -102z" />
    <glyph glyph-name="T" unicode="T" 
d="M852 0v2408h-819v451h2212v-451h-820v-2408h-573z" />
    <glyph glyph-name="U" unicode="U" horiz-adv-x="2957" 
d="M311 1032v1827h574v-1651q0 -807 594 -807t594 807v1651h573v-1827q0 -1081 -1167 -1081q-1168 0 -1168 1081z" />
    <glyph glyph-name="V" unicode="V" horiz-adv-x="2732" 
d="M1024 0l-983 2859h614l734 -2245h8l725 2245h569l-962 -2859h-705z" />
    <glyph glyph-name="W" unicode="W" horiz-adv-x="4096" 
d="M799 0l-758 2859h602l533 -2286h8l487 2286h778l504 -2286h8l537 2286h557l-745 -2859h-738l-516 2286h-8l-508 -2286h-741z" />
    <glyph glyph-name="X" unicode="X" horiz-adv-x="2732" 
d="M41 0l938 1487l-852 1372h664l598 -1020l610 1020h614l-860 -1372l938 -1487h-676l-659 1114l-668 -1114h-647z" />
    <glyph glyph-name="Y" unicode="Y" horiz-adv-x="2732" 
d="M1090 0v1130l-1045 1729h672l676 -1200l688 1200h606l-1024 -1729v-1130h-573z" />
    <glyph glyph-name="Z" unicode="Z" 
d="M147 0v467l1344 1941h-1290v451h1900v-467l-1356 -1941h1385v-451h-1983z" />
    <glyph glyph-name="bracketleft" unicode="[" horiz-adv-x="1364" 
d="M295 -573v3670h917v-402h-393v-2867h393v-401h-917z" />
    <glyph glyph-name="backslash" unicode="\" horiz-adv-x="1593" 
d="M1081 -49l-999 2957h426l999 -2957h-426z" />
    <glyph glyph-name="bracketright" unicode="]" horiz-adv-x="1364" 
d="M152 3097h917v-3670h-917v401h393v2867h-393v402z" />
    <glyph glyph-name="asciicircum" unicode="^" horiz-adv-x="2458" 
d="M696 1282h-426l766 1577h385l766 -1577h-426l-532 1147z" />
    <glyph glyph-name="underscore" unicode="_" horiz-adv-x="2048" 
d="M2048 -512h-2048v205h2048v-205z" />
    <glyph glyph-name="grave" unicode="`" horiz-adv-x="1139" 
d="M680 2994l340 -598h-340l-561 598h561z" />
    <glyph glyph-name="a" unicode="a" 
d="M393 1528l-16 471q159 73 357.5 116.5t375.5 43.5q323 0 522.5 -92.5t293 -287.5t93.5 -509v-271q0 -247 9 -528q5 -217 24 -471h-483q-10 54 -14.5 113.5t-6 93t-4.5 108.5h-8q-91 -168 -274 -266t-377 -98q-190 0 -360.5 75t-274 217.5t-103.5 334.5q0 424 361 602
q252 123 709 123h303q0 248 -113.5 351t-362.5 103q-113 0 -228.5 -28t-222.5 -79.5t-200 -121.5zM672 610q0 -128 96.5 -193t251.5 -65q244 0 385 189q115 151 115 434h-238q-610 0 -610 -365z" />
    <glyph glyph-name="b" unicode="b" horiz-adv-x="2503" 
d="M836 1061q0 -166 48 -322.5t156 -259t279 -102.5q169 0 272 104t147 259t44 321q0 160 -42.5 313t-144.5 256t-268 103q-127 0 -220.5 -60t-153 -158.5t-88.5 -218.5t-29 -235zM283 0v3072h548v-1233h9q240 320 630 320q236 0 405.5 -86t276 -238.5t155 -350t48.5 -423.5
q0 -225 -48.5 -424t-155.5 -354.5t-276.5 -243.5t-404.5 -88q-189 0 -361.5 74.5t-285.5 232.5h-8v-258h-532z" />
    <glyph glyph-name="c" unicode="c" horiz-adv-x="1819" 
d="M1700 2089l-49 -434q-172 78 -373 78q-166 0 -293 -83.5t-195.5 -235.5t-68.5 -349q0 -305 145.5 -496.5t423.5 -191.5q197 0 422 98l25 -455q-225 -69 -549 -69q-336 0 -571 142t-352.5 393.5t-117.5 578.5q0 307 119.5 557t350 393.5t550.5 143.5q297 0 533 -70z" />
    <glyph glyph-name="d" unicode="d" horiz-adv-x="2503" 
d="M721 1061q0 -266 109.5 -475t353.5 -209q171 0 279 103t156 259t48 322q0 114 -29 235t-88 219t-153 158t-221 60q-167 0 -268.5 -103t-144 -256.5t-42.5 -312.5zM1688 0v238h-9q-228 -287 -647 -287q-235 0 -405 89t-276 244t-155 353t-49 424q0 228 49 424t155 348.5
t275.5 239t405.5 86.5q389 0 631 -295h8v1208h549v-3072h-532z" />
    <glyph glyph-name="e" unicode="e" 
d="M672 1262h934q-13 220 -121.5 357.5t-325.5 137.5q-221 0 -344.5 -136t-142.5 -359zM1974 565v-446q-303 -168 -725 -168q-259 0 -463.5 73t-347 214t-217 345.5t-74.5 460.5q0 310 110.5 565t333 402.5t535.5 147.5q553 0 778.5 -334t225.5 -940h-1458
q18 -251 180.5 -392t421.5 -141q317 0 700 213z" />
    <glyph glyph-name="f" unicode="f" horiz-adv-x="1593" 
d="M483 0v1708h-405v401h405v295q0 323 177 520t495 197q210 0 401 -45l-45 -455q-125 74 -237 74q-242 0 -242 -323v-263h479v-401h-479v-1708h-549z" />
    <glyph glyph-name="g" unicode="g" horiz-adv-x="2503" 
d="M1188 426q244 0 363.5 182.5t119.5 468.5q0 188 -49.5 336t-152.5 234t-257 86q-257 0 -374 -194.5t-117 -473.5q0 -242 123.5 -440.5t343.5 -198.5zM1696 2109h524v-1904q0 -495 -251.5 -804.5t-862.5 -309.5q-391 0 -729 143l45 467q134 -72 314.5 -128t299.5 -56
q280 0 420 119.5t177.5 290t37.5 409.5h-8q-81 -143 -257 -239.5t-398 -96.5q-226 0 -391 84t-269.5 233t-152.5 339.5t-48 408.5q0 270 96 521t298.5 412t498.5 161q436 0 648 -336h8v286z" />
    <glyph glyph-name="h" unicode="h" horiz-adv-x="2503" 
d="M283 0v3072h548v-1249h9q107 158 280 247t383 89q241 0 402.5 -105.5t238 -292.5t76.5 -430v-1331h-549v1126q0 278 -62 442.5t-294 164.5q-183 0 -291.5 -111t-150.5 -271.5t-42 -318.5v-1032h-548z" />
    <glyph glyph-name="i" unicode="i" horiz-adv-x="1139" 
d="M295 0v2109h549v-2109h-549zM295 2494v525h549v-525h-549z" />
    <glyph glyph-name="j" unicode="j" horiz-adv-x="1139" 
d="M-61 -877l20 394q152 8 221 39.5t92 111.5t23 250v2191h549v-2265q0 -186 -49.5 -352.5t-190.5 -283.5t-395 -117q-160 0 -270 32zM295 2494v525h549v-525h-549z" />
    <glyph glyph-name="k" unicode="k" 
d="M295 0v3072h549v-1806h8l655 843h647l-786 -942l885 -1167h-697l-704 1024h-8v-1024h-549z" />
    <glyph glyph-name="l" unicode="l" horiz-adv-x="1139" 
d="M295 0v3072h549v-3072h-549z" />
    <glyph glyph-name="m" unicode="m" horiz-adv-x="3641" 
d="M274 0v2109h512v-294h9q119 179 286.5 261.5t339.5 82.5q454 0 623 -373q91 181 273 277t386 96q367 0 517.5 -219.5t150.5 -608.5v-1331h-549v1257q0 140 -16 236.5t-85.5 168t-213.5 71.5q-410 0 -410 -709v-1024h-549v1257q0 140 -16 236.5t-85.5 168t-213.5 71.5
q-410 0 -410 -709v-1024h-549z" />
    <glyph glyph-name="n" unicode="n" horiz-adv-x="2503" 
d="M283 0v2109h520v-286h8q240 336 692 336q241 0 402.5 -105.5t238 -292.5t76.5 -430v-1331h-549v1126q0 278 -62 442.5t-294 164.5q-183 0 -291.5 -111t-150.5 -271.5t-42 -318.5v-1032h-548z" />
    <glyph glyph-name="o" unicode="o" horiz-adv-x="2503" 
d="M147 1040q0 339 143.5 593t396.5 390t562 136q312 0 565.5 -136t397 -390t143.5 -593q0 -304 -132 -553t-382.5 -392.5t-591.5 -143.5q-338 0 -587.5 143t-382 392.5t-132.5 553.5zM721 1106q0 -307 121 -518t407 -211q289 0 411 210t122 519q0 168 -59.5 310.5
t-180 229.5t-293.5 87q-170 0 -289.5 -88.5t-179 -232t-59.5 -306.5z" />
    <glyph glyph-name="p" unicode="p" horiz-adv-x="2503" 
d="M283 -860v2969h524v-299h8q209 349 655 349q236 0 405.5 -86t276 -238.5t155 -350t48.5 -423.5q0 -225 -49.5 -424.5t-156.5 -354.5t-279 -243t-412 -88q-191 0 -336 62t-282 229h-9v-1102h-548zM1327 1733q-127 0 -220.5 -60t-153 -158.5t-88.5 -218.5t-29 -235
q0 -166 48 -322.5t156 -259t279 -102.5q169 0 272 104t147 259t44 321q0 160 -42.5 313t-144.5 256t-268 103z" />
    <glyph glyph-name="q" unicode="q" horiz-adv-x="2503" 
d="M1671 -860v1102h-8q-136 -166 -281.5 -228.5t-337.5 -62.5q-239 0 -411.5 88.5t-280 245t-156.5 353.5t-49 423q0 228 48.5 422.5t156 348.5t280 240.5t412.5 86.5q433 0 644 -349h8v299h524v-2969h-549zM1176 1733q-167 0 -268.5 -103t-144 -256.5t-42.5 -312.5
q0 -266 109.5 -475t353.5 -209q171 0 279 103t156 259t48 322q0 114 -29 235t-88 219t-153 158t-221 60z" />
    <glyph glyph-name="r" unicode="r" horiz-adv-x="1593" 
d="M295 0v2109h487v-479h9q13 106 91 230.5t206.5 211.5t279.5 87q111 0 168 -17v-553q-76 45 -246 45q-204 0 -302.5 -139t-121 -315.5t-22.5 -405.5v-774h-549z" />
    <glyph glyph-name="s" unicode="s" horiz-adv-x="1819" 
d="M1573 2081l-37 -414q-265 90 -492 90q-131 0 -227 -55.5t-96 -177.5q0 -108 167.5 -171.5t348.5 -126t309.5 -195t128.5 -392.5q0 -234 -123 -389t-326 -227t-435 -72q-282 0 -623 90l33 451q280 -140 540 -140q134 0 247.5 60.5t113.5 197.5q0 135 -88.5 178t-349.5 126
t-389 207.5t-128 381.5q0 216 114 365t302 220t412 71q235 0 598 -78z" />
    <glyph glyph-name="t" unicode="t" horiz-adv-x="1593" 
d="M463 635v1073h-406v401h406v422l549 176v-598h487v-401h-487v-983q0 -348 258 -348q161 0 250 57l16 -434q-171 -49 -406 -49q-212 0 -361.5 83t-227.5 237t-78 364z" />
    <glyph glyph-name="u" unicode="u" horiz-adv-x="2503" 
d="M2220 2109v-2109h-520v287h-8q-275 -336 -693 -336q-240 0 -401.5 105t-238 292t-76.5 430v1331h548v-1126q0 -174 19 -300t97.5 -216t240.5 -90q183 0 291.5 111t150 268t41.5 321v1032h549z" />
    <glyph glyph-name="v" unicode="v" 
d="M831 0l-782 2109h590l524 -1536h8l508 1536h549l-778 -2109h-619z" />
    <glyph glyph-name="w" unicode="w" horiz-adv-x="3641" 
d="M758 0l-713 2109h582l467 -1560h8l426 1560h639l459 -1560h8l438 1560h524l-647 -2109h-647l-459 1610h-8l-451 -1610h-626z" />
    <glyph glyph-name="x" unicode="x" 
d="M762 1106l-651 1003h647l413 -688l406 688h582l-631 -1003l713 -1106h-656l-471 786l-475 -786h-602z" />
    <glyph glyph-name="y" unicode="y" 
d="M651 2109l508 -1540h8l508 1540h557l-790 -2093q-118 -312 -162.5 -418.5t-136.5 -232.5t-233 -200t-345 -74q-193 0 -389 57l37 406q104 -37 283 -37q165 0 260.5 103.5t95.5 273.5l-807 2215h606z" />
    <glyph glyph-name="z" unicode="z" horiz-adv-x="2048" 
d="M193 1683v426h1671v-450l-1049 -1233h1086v-426h-1754v446l1070 1237h-1024z" />
    <glyph glyph-name="braceleft" unicode="{" horiz-adv-x="1364" 
d="M74 1085v353q134 0 235 91t101 290v725q0 181 87 306t225.5 186t293.5 61h307v-328h-184q-126 0 -165.5 -71.5t-39.5 -227.5v-709q0 -256 -140.5 -367.5t-318.5 -127.5v-9q459 -42 459 -524v-680q0 -158 39 -228.5t166 -70.5h184v-327h-307q-160 0 -299 62.5t-223 188.5
t-84 302v696q0 215 -100 312t-236 97z" />
    <glyph glyph-name="bar" unicode="|" horiz-adv-x="909" 
d="M242 -49v3121h426v-3121h-426z" />
    <glyph glyph-name="braceright" unicode="}" horiz-adv-x="1364" 
d="M1290 1438v-353q-135 0 -235.5 -97t-100.5 -312v-696q0 -180 -84 -306t-222 -186.5t-300 -60.5h-307v327h184q127 0 166 70.5t39 228.5v680q0 482 459 524v9q-178 16 -318.5 128t-140.5 367v709q0 156 -39.5 227.5t-165.5 71.5h-184v328h307q162 0 300 -60.5t222 -186.5
t84 -306v-725q0 -199 101.5 -290t234.5 -91z" />
    <glyph glyph-name="asciitilde" unicode="~" horiz-adv-x="2458" 
d="M430 672l-147 360q189 361 495 361q217 0 479 -140q71 -35 118 -57.5t101.5 -44t105.5 -33.5t106 -12q95 0 171.5 77t168.5 218l147 -361q-213 -360 -471 -360q-126 0 -226 34.5t-249 108.5q-136 73 -230 108.5t-217 35.5q-216 0 -352 -295z" />
    <glyph glyph-name="sterling" unicode="&#xa3;" horiz-adv-x="1593" 
d="M90 4v496q132 -49 275 -49q244 0 308 137.5t64 365.5v1905h574v-2179q0 -168 -79 -336t-255.5 -280.5t-448.5 -112.5q-231 0 -438 53z" />
    <glyph glyph-name="section" unicode="&#xa4;" 
d="M1962 2503l242 -242l-238 -238q188 -263 188 -581q0 -315 -188 -590l238 -238l-242 -241l-238 237q-269 -188 -585 -188q-317 0 -586 188l-238 -237l-241 241l237 238q-188 266 -188 586q0 316 188 585l-237 238l241 242l238 -238q262 189 586 189q315 0 585 -189z
M573 1438q0 -242 166.5 -416t399.5 -174q152 0 282 79.5t206.5 215.5t76.5 295q0 158 -76.5 294.5t-206 216t-282.5 79.5q-155 0 -284 -79.5t-205.5 -216t-76.5 -294.5z" />
    <glyph glyph-name="paragraph" unicode="&#xa6;" horiz-adv-x="909" 
d="M242 -49v1126h426v-1126h-426zM242 1946v1126h426v-1126h-426z" />
    <glyph glyph-name="germandbls" unicode="&#xa7;" 
d="M696 1266q0 -119 120.5 -198.5t342.5 -165t279 -120.5q147 126 147 308q0 129 -99.5 202t-330 155.5t-311.5 121.5q-60 -42 -104 -127t-44 -176zM1847 2826l-45 -446q-272 102 -585 102q-394 0 -394 -278q0 -138 114 -198t434.5 -178.5t480 -259t159.5 -392.5
q0 -166 -80 -305.5t-223 -219.5q133 -77 206 -200.5t73 -266.5q0 -232 -129.5 -400.5t-339 -254.5t-437.5 -86q-279 0 -757 119l36 467q389 -160 689 -160q413 0 413 283q0 136 -116 197t-438.5 183.5t-480 258t-157.5 376.5q0 367 316 553q-147 103 -217 215t-70 273
q0 229 130 387.5t334.5 235.5t428.5 77q221 0 655 -82z" />
    <glyph glyph-name="registered" unicode="&#xa8;" 
d="M1798 3617v-475h-475v475h475zM479 3142v475h475v-475h-475zM332 2859h1687v-451h-1114v-704h1020v-451h-1020v-802h1127v-451h-1700v2859z" />
    <glyph glyph-name="copyright" unicode="&#xa9;" horiz-adv-x="3277" 
d="M2691 1430q0 251 -80.5 463t-225.5 366t-336 237.5t-411 83.5q-221 0 -413 -83.5t-336 -237.5t-223.5 -367t-79.5 -462q0 -250 79.5 -463.5t224 -368t336 -237t412.5 -82.5q220 0 410.5 82.5t336 237t226 367.5t80.5 464zM2073 1192h340q-31 -195 -133 -336t-253.5 -214
t-330.5 -73q-247 0 -437.5 114t-294.5 314t-104 445q0 251 99.5 449t288 310.5t440.5 112.5q186 0 336.5 -71t249 -209.5t126.5 -333.5h-327q-26 139 -132 213t-253 74q-203 0 -314.5 -148t-111.5 -393q0 -233 121.5 -391t312.5 -158q157 0 259.5 77t117.5 218zM160 1430
q0 399 199 739.5t539.5 539.5t739.5 199q400 0 740.5 -199t539.5 -539.5t199 -739.5q0 -400 -199 -740.5t-539.5 -539.5t-740.5 -199q-399 0 -739.5 199t-539.5 539.5t-199 740.5z" />
    <glyph glyph-name="acute" unicode="&#xab;" 
d="M1114 1102l483 840h517l-451 -840l451 -840h-517zM201 1102l483 840h516l-450 -840l450 -840h-516z" />
    <glyph glyph-name="dieresis" unicode="&#xac;" horiz-adv-x="2458" 
d="M1843 442v828h-1655v426h2081v-1254h-426z" />
    <glyph glyph-name="notequal" unicode="&#xad;" horiz-adv-x="1139" 
d="M1159 2531h-1179v328h1179v-328z" />
    <glyph glyph-name="AE" unicode="&#xae;" horiz-adv-x="3277" 
d="M160 1430q0 399 199 739.5t539.5 539.5t739.5 199q400 0 740.5 -199t539.5 -539.5t199 -739.5q0 -400 -199 -740.5t-539.5 -539.5t-740.5 -199q-399 0 -739.5 199t-539.5 539.5t-199 740.5zM586 1430q0 -250 79.5 -463.5t224 -368t336 -237t412.5 -82.5q220 0 410.5 82.5
t336 237t226 367.5t80.5 464t-80.5 463t-225.5 366t-336 237.5t-411 83.5q-221 0 -413 -83.5t-336 -237.5t-223.5 -367t-79.5 -462zM1044 614v1643h619q328 0 491.5 -112t163.5 -380q0 -402 -434 -438l434 -713h-360l-393 697h-168v-697h-353zM1397 1581h286
q144 0 213.5 43.5t69.5 173.5q0 189 -319 189h-250v-406z" />
    <glyph glyph-name="Oslash" unicode="&#xaf;" horiz-adv-x="1139" 
d="M283 0v2859h573v-2859h-573zM754 3617h475v-475h-475v475zM385 3142h-475v475h475v-475z" />
    <glyph glyph-name="infinity" unicode="&#xb0;" horiz-adv-x="1638" 
d="M819 2609q-158 0 -259 -100t-101 -260t100.5 -260.5t259.5 -100.5q105 0 187.5 45.5t128 128t45.5 187.5q0 106 -45.5 187.5t-128 127t-187.5 45.5zM819 2908q178 0 330.5 -88.5t241 -241t88.5 -329.5q0 -182 -87 -334t-239 -239t-334 -87q-285 0 -472 188t-187 472
q0 133 50.5 253.5t142 212t211 142.5t255.5 51z" />
    <glyph glyph-name="plusminus" unicode="&#xb1;" horiz-adv-x="2458" 
d="M1016 1532v541h426v-541h827v-426h-827v-545h-426v545h-828v426h828zM188 0v426h2081v-426h-2081z" />
    <glyph glyph-name="lessequal" unicode="&#xb2;" horiz-adv-x="1139" 
d="M283 0v2859h573v-2859h-573z" />
    <glyph glyph-name="greaterequal" unicode="&#xb3;" horiz-adv-x="1139" 
d="M295 0v2109h549v-2109h-549zM295 2494v525h549v-525h-549z" />
    <glyph glyph-name="mu" unicode="&#xb5;" horiz-adv-x="2503" 
d="M283 -860v2969h548v-1126q0 -174 19 -300t97.5 -216t240.5 -90q183 0 291.5 111t150 268t41.5 321v1032h549v-2109h-520v287h-8q-52 -128 -180.5 -232t-274.5 -104q-127 0 -222.5 26t-174.5 113h-9v-950h-548z" />
    <glyph glyph-name="partialdiff" unicode="&#xb6;" horiz-adv-x="2540" 
d="M905 -508v1905q-421 0 -659 193.5t-238 523.5q0 405 259 575t724 170h1200v-3367h-426v3039h-434v-3039h-426z" />
    <glyph glyph-name="product" unicode="&#xb8;" 
d="M1798 2974v-480h-475v480h475zM479 2494v480h475v-480h-475zM1978 119q-309 -168 -725 -168q-260 0 -465.5 73t-349 215t-217.5 345.5t-74 459.5q0 311 110.5 565.5t333.5 402t539 147.5q550 0 775 -334t225 -940h-1458q18 -251 180.5 -392t421.5 -141q313 0 704 213
v-446zM1606 1262q-13 220 -121.5 357.5t-325.5 137.5q-221 0 -344.5 -136t-142.5 -359h934z" />
    <glyph glyph-name="pi" unicode="&#xb9;" horiz-adv-x="1626" 
d="M819 2908q145 0 277 -47t231.5 -134t156 -210.5t56.5 -271.5q0 -305 -208 -488.5t-517 -183.5q-201 0 -368 82t-264 235t-97 355q0 198 100 349t269.5 232.5t363.5 81.5zM827 2662q-175 0 -257.5 -117t-82.5 -300q0 -426 332 -426q320 0 320 426q0 173 -75 295t-237 122z
" />
    <glyph glyph-name="ordfeminine" unicode="&#xbb;" 
d="M1163 1102l-483 -840h-516l450 840l-450 840h516zM2077 1102l-484 -840h-516l451 840l-451 840h516z" />
    <glyph glyph-name="ordmasculine" unicode="&#xbc;" horiz-adv-x="1139" 
d="M-61 -877l20 394q152 8 221 39.5t92 111.5t23 250v2191h549v-2265q0 -186 -49.5 -352.5t-190.5 -283.5t-395 -117q-160 0 -270 32zM295 2494v525h549v-525h-549z" />
    <glyph glyph-name="Omega" unicode="&#xbd;" 
d="M1921 2806l-53 -471q-284 123 -582 123q-180 0 -315 -93t-135 -305q0 -160 101 -215.5t459 -204.5t525.5 -324t167.5 -501q0 -298 -143 -493t-385 -283t-545 -88q-211 0 -330 21t-403 89l53 517q324 -177 647 -177q190 0 349 96t159 273q0 179 -123 252t-459.5 213
t-503.5 310t-167 491q0 302 139 498.5t366 285t494 88.5q375 0 684 -102z" />
    <glyph glyph-name="ae" unicode="&#xbe;" horiz-adv-x="1819" 
d="M1573 2081l-37 -414q-265 90 -492 90q-131 0 -227 -55.5t-96 -177.5q0 -108 167.5 -171.5t348.5 -126t309.5 -195t128.5 -392.5q0 -234 -123 -389t-326 -227t-435 -72q-282 0 -623 90l33 451q280 -140 540 -140q134 0 247.5 60.5t113.5 197.5q0 135 -88.5 178t-349.5 126
t-389 207.5t-128 381.5q0 216 114 365t302 220t412 71q235 0 598 -78z" />
    <glyph glyph-name="oslash" unicode="&#xbf;" horiz-adv-x="1139" 
d="M844 0h-549v2109h549v-2109zM754 2970h475v-476h-475v476zM385 2494h-475v476h475v-476z" />
    <glyph glyph-name="questiondown" unicode="&#xc0;" horiz-adv-x="2957" 
d="M1151 2859h647l1122 -2859h-634l-246 655h-1159l-250 -655h-594zM1466 2286h-8l-414 -1180h836z" />
    <glyph glyph-name="exclamdown" unicode="&#xc1;" horiz-adv-x="2503" 
d="M332 2859h1868v-451h-1295v-679h348q1098 0 1098 -910q0 -293 -161 -477t-428 -263t-603 -79h-827v2859zM905 451h307q252 0 396.5 86t144.5 315q0 426 -541 426h-307v-827z" />
    <glyph glyph-name="logicalnot" unicode="&#xc2;" horiz-adv-x="2503" 
d="M332 2859h1003q370 0 644 -155.5t274 -577.5q0 -251 -154.5 -421t-415.5 -218v-8q192 -18 342 -106t232 -230t82 -316q0 -475 -311 -651t-693 -176h-1003v2859zM905 1704h234q540 0 540 348q0 155 -77.5 234t-192.5 100.5t-279 21.5h-225v-704zM905 451h271
q589 0 589 397q0 175 -82 270t-210.5 127.5t-296.5 32.5h-271v-827z" />
    <glyph glyph-name="radical" unicode="&#xc3;" horiz-adv-x="2048" 
d="M332 2859h1683v-451h-1110v-2408h-573v2859z" />
    <glyph glyph-name="florin" unicode="&#xc4;" horiz-adv-x="2580" 
d="M586 0v-492h-553v943q192 0 276 111t84 396v1901h1884v-2408h185v-943h-549v492h-1327zM803 451h901v1957h-762v-1450q0 -258 -52 -370.5t-87 -136.5z" />
    <glyph glyph-name="approxequal" unicode="&#xc5;" 
d="M332 2859h1687v-451h-1114v-704h1020v-451h-1020v-802h1127v-451h-1700v2859z" />
    <glyph glyph-name="Delta" unicode="&#xc6;" horiz-adv-x="3867" 
d="M1651 0v1327h-9l-798 -1327h-750l996 1511l-947 1348h705l803 -1229v1229h573v-1229l807 1229h700l-946 -1348l996 -1511h-750l-795 1327h-12v-1327h-573z" />
    <glyph glyph-name="guillemotleft" unicode="&#xc7;" horiz-adv-x="2126" 
d="M139 532q335 -131 635 -131q129 0 271.5 43.5t238.5 136t96 226.5q0 446 -610 446h-319v451h262q290 0 440 95t150 282q0 136 -65.5 220t-176 120.5t-250.5 36.5q-331 0 -643 -152l-33 463q372 139 799 139q151 0 312.5 -32t305.5 -112t236 -226.5t92 -362.5
q0 -276 -126 -434t-365 -250v-8q260 -49 412.5 -233t152.5 -447q0 -460 -329 -656t-769 -196q-422 0 -750 94z" />
    <glyph glyph-name="guillemotright" unicode="&#xc8;" horiz-adv-x="2957" 
d="M2654 0h-549v2142h-4l-1097 -2142h-701v2859h549v-2138h8l1090 2138h704v-2859z" />
    <glyph glyph-name="ellipsis" unicode="&#xc9;" horiz-adv-x="2957" 
d="M2654 0h-549v2142h-4l-1097 -2142h-701v2859h549v-2138h8l1090 2138h704v-2859zM1024 3617q35 -156 141 -242t269 -86t272.5 85.5t148.5 242.5h250q-12 -181 -101.5 -322.5t-239 -219t-330.5 -77.5q-179 0 -329 78t-239 219.5t-96 321.5h254z" />
    <glyph glyph-name="nonbreakingspace" unicode="&#xca;" horiz-adv-x="2732" 
d="M332 2859h573v-1229l1032 1229h709l-1180 -1348l1225 -1511h-749l-1029 1327h-8v-1327h-573v2859z" />
    <glyph glyph-name="Agrave" unicode="&#xcb;" horiz-adv-x="2580" 
d="M393 2859h1884v-2859h-573v2408h-762v-1687q0 -169 -79 -347.5t-254.5 -300.5t-448.5 -122l-140 500q171 0 253.5 76.5t101 178.5t18.5 248v1905z" />
    <glyph glyph-name="Atilde" unicode="&#xcc;" horiz-adv-x="3867" 
d="M332 2859h921l676 -2167h8l684 2167h914v-2859h-545v2359h-12l-770 -2359h-545l-774 2359l-8 -8v-2351h-549v2859z" />
    <glyph glyph-name="Otilde" unicode="&#xcd;" horiz-adv-x="2957" 
d="M332 2859h573v-1155h1147v1155h574v-2859h-574v1253h-1147v-1253h-573v2859z" />
    <glyph glyph-name="OE" unicode="&#xce;" horiz-adv-x="3187" 
d="M1593 2908q439 0 755.5 -184.5t481 -518.5t164.5 -767q0 -434 -163 -771.5t-480.5 -526.5t-757.5 -189q-447 0 -763 186.5t-476.5 522.5t-160.5 778q0 441 161.5 773.5t477.5 514.5t761 182zM1593 401q280 0 461.5 145.5t263.5 381.5t82 510q0 266 -86 499t-268.5 377
t-452.5 144q-269 0 -450 -144t-266.5 -377.5t-85.5 -498.5q0 -274 82.5 -510t262.5 -381.5t457 -145.5z" />
    <glyph glyph-name="oe" unicode="&#xcf;" horiz-adv-x="2957" 
d="M332 2859h2294v-2859h-574v2408h-1147v-2408h-573v2859z" />
    <glyph glyph-name="emdash" unicode="&#xd0;" horiz-adv-x="2503" 
d="M332 2859h807q533 0 862.5 -195t329.5 -669q0 -473 -301.5 -691.5t-800.5 -218.5h-324v-1085h-573v2859zM905 1540h283q545 0 545 422q0 235 -150.5 340.5t-394.5 105.5h-283v-868z" />
    <glyph glyph-name="endash" unicode="&#xd1;" horiz-adv-x="2503" 
d="M2413 41q-384 -90 -652 -90q-469 0 -823 158t-549.5 480t-195.5 791q0 362 108 649t312.5 482.5t493.5 296t654 100.5q345 0 647 -119l-41 -483q-263 152 -618 152q-218 0 -394.5 -77.5t-303 -219t-193.5 -331t-67 -409.5q0 -289 116.5 -522.5t336 -365.5t517.5 -132
q169 0 347 33.5t280 85.5z" />
    <glyph glyph-name="quotedblleft" unicode="&#xd2;" 
d="M852 2408h-819v451h2212v-451h-820v-2408h-573v2408z" />
    <glyph glyph-name="quotedblright" unicode="&#xd3;" horiz-adv-x="2732" 
d="M1159 655l-1130 2204h647l762 -1593l647 1593h594l-1213 -2859h-594z" />
    <glyph glyph-name="quoteleft" unicode="&#xd4;" horiz-adv-x="3645" 
d="M1532 2613v246h573v-246q290 0 538 -81t432.5 -236.5t285 -375t100.5 -490.5t-100.5 -491t-285 -374.5t-432.5 -236.5t-538 -82v-246h-573v246q-290 0 -538 82t-431.5 236.5t-285 376.5t-101.5 489q0 268 101.5 489t285 376.5t431.5 236.5t538 81zM1532 2171
q-201 0 -376 -92t-278.5 -261t-103.5 -388q0 -221 103.5 -389.5t278.5 -260.5t376 -92v1483zM2105 688q201 0 376 92t278.5 260.5t103.5 389.5q0 219 -103.5 388t-278.5 261t-376 92v-1483z" />
    <glyph glyph-name="quoteright" unicode="&#xd5;" horiz-adv-x="2732" 
d="M979 1487l-852 1372h664l598 -1020l610 1020h614l-860 -1372l938 -1487h-672l-663 1114l-668 -1114h-647z" />
    <glyph glyph-name="divide" unicode="&#xd6;" horiz-adv-x="2957" 
d="M2257 0h-1925v2859h573v-2408h1147v2408h574v-2408h184v-1016h-553v565z" />
    <glyph glyph-name="lozenge" unicode="&#xd7;" horiz-adv-x="2732" 
d="M217 2859h574v-897q0 -221 120 -340t330 -119q310 0 586 209v1147h573v-2859h-573v1245q-173 -101 -379 -161t-399 -60q-240 0 -429 97t-296 297.5t-107 494.5v946z" />
    <glyph glyph-name="ydieresis" unicode="&#xd8;" horiz-adv-x="3793" 
d="M1610 451v2408h573v-2408h705v2408h573v-2859h-3129v2859h573v-2408h705z" />
    <glyph glyph-name="Ydieresis" unicode="&#xd9;" horiz-adv-x="3793" 
d="M3101 0h-2769v2859h573v-2408h709v2408h573v-2408h705v2408h573v-2408h185v-943h-549v492z" />
    <glyph glyph-name="fraction" unicode="&#xda;" horiz-adv-x="279" 
d="M33 2859h1024v-1085h327q499 0 798.5 -218t299.5 -692q0 -247 -94.5 -416.5t-258 -266.5t-374 -139t-465.5 -42h-807v2408h-450v451zM1057 451h286q240 0 390.5 106.5t150.5 339.5q0 426 -541 426h-286v-872z" />
    <glyph glyph-name="currency" unicode="&#xdb;" horiz-adv-x="3645" 
d="M324 2859h573v-1085h344q501 0 803.5 -218.5t302.5 -691.5q0 -474 -330.5 -669t-865.5 -195h-827v2859zM2736 2859h574v-2859h-574v2859zM897 451h303q245 0 395 106t150 340q0 426 -545 426h-303v-872z" />
    <glyph glyph-name="guilsinglleft" unicode="&#xdc;" horiz-adv-x="2503" 
d="M332 2859h573v-1085h348q499 0 798.5 -218t299.5 -692q0 -247 -94.5 -416.5t-258 -266.5t-374 -139t-465.5 -42h-827v2859zM905 451h307q240 0 390.5 106.5t150.5 339.5q0 426 -541 426h-307v-872z" />
    <glyph glyph-name="guilsinglright" unicode="&#xdd;" horiz-adv-x="2503" 
d="M1708 1704q-50 223 -175 393t-316.5 265.5t-434.5 95.5q-350 0 -618 -152l-41 483q153 60 324 89.5t323 29.5q366 0 656.5 -101t494 -296t311 -480.5t107.5 -650.5q0 -469 -195.5 -791t-549.5 -480t-824 -158q-267 0 -651 90l24 479q103 -52 282 -85.5t345 -33.5
q269 0 476 107.5t330.5 300t156.5 444.5h-1282v451h1257z" />
    <glyph glyph-name="fi" unicode="&#xde;" horiz-adv-x="4096" 
d="M1270 1253h-365v-1253h-573v2859h573v-1155h373q66 562 404.5 883t906.5 321q418 0 718.5 -184.5t456.5 -518t156 -767.5q0 -435 -155.5 -772.5t-457 -526t-718.5 -188.5q-395 0 -683 161t-447.5 454t-188.5 687zM2589 401q256 0 421 145t240.5 381.5t75.5 510.5
q0 265 -79 498.5t-245.5 377.5t-412.5 144t-412 -144t-244 -376t-78 -500q0 -273 74.5 -509.5t240 -382t419.5 -145.5z" />
    <glyph glyph-name="fl" unicode="&#xdf;" horiz-adv-x="2503" 
d="M2200 0h-574v1188h-184q-175 0 -252.5 -63t-145.5 -232l-344 -893h-639l459 1118q128 281 303 299v4q-268 37 -429 222.5t-161 441.5q0 267 107.5 429.5t284.5 235t376 91t490 18.5h90h619v-2859zM1626 2408h-188q-279 0 -443 -70.5t-164 -301.5q0 -240 167.5 -319
t439.5 -79h188v770z" />
    <glyph glyph-name="daggerdbl" unicode="&#xe0;" 
d="M377 1999q158 75 354.5 117.5t378.5 42.5q322 0 522.5 -92t293.5 -286.5t93 -510.5v-271q0 -303 13 -528q0 -198 20 -471h-483q-10 54 -14.5 113.5t-6 93t-4.5 108.5h-4q-94 -168 -277.5 -266t-377.5 -98q-190 0 -360.5 75t-274 217.5t-103.5 334.5q0 424 361 602
q252 123 709 123h303q0 248 -113.5 351t-362.5 103q-113 0 -228.5 -28t-222.5 -79.5t-200 -121.5zM1020 352q244 0 385 189q115 144 115 434h-238q-610 0 -610 -365q0 -128 96.5 -193t251.5 -65z" />
    <glyph glyph-name="periodcentered" unicode="&#xe1;" horiz-adv-x="2503" 
d="M1266 377q184 0 301 104t168 268.5t51 356.5q0 258 -141 442.5t-379 184.5q-239 0 -380 -187.5t-141 -439.5q0 -302 123.5 -515.5t397.5 -213.5zM172 1098q0 560 124.5 955t420.5 638q132 107 299 171.5t400.5 122t323.5 87t128 86.5l307 -307q-74 -110 -211 -173
t-383.5 -128.5t-387.5 -113.5t-247 -138q-250 -212 -311 -463h8q114 140 289 232t375 92q299 0 539.5 -135.5t376.5 -390t136 -593.5q0 -303 -133.5 -552t-382 -393t-577.5 -144q-252 0 -456.5 81.5t-346.5 232.5t-216.5 363.5t-74.5 469.5z" />
    <glyph glyph-name="quotesinglbase" unicode="&#xe2;" 
d="M283 2109h974q807 0 807 -561q0 -164 -93.5 -285t-258.5 -161v-8q196 -44 313 -169.5t117 -293.5q0 -256 -142 -396.5t-332 -187.5t-378 -47h-1007v2109zM1257 1274q122 0 206.5 59t84.5 162q0 115 -79.5 180.5t-211.5 65.5h-450v-467h450zM1278 369q137 0 238.5 76.5
t101.5 197.5q0 129 -96 204t-244 75h-471v-553h471z" />
    <glyph glyph-name="quotedblbase" unicode="&#xe3;" horiz-adv-x="1745" 
d="M283 2109h1429v-426h-881v-1683h-548v2109z" />
    <glyph glyph-name="perthousand" unicode="&#xe4;" 
d="M553 -492h-520v902q151 0 214.5 92.5t63.5 300.5v1306h1684v-1699h151v-902h-528v492h-1065v-492zM1446 410v1290h-619v-938q0 -227 -118 -352h737z" />
    <glyph glyph-name="Acircumflex" unicode="&#xe5;" 
d="M1978 119q-309 -168 -725 -168q-260 0 -465.5 73t-349 215t-217.5 345.5t-74 459.5q0 311 110.5 565.5t333.5 402t539 147.5q550 0 775 -334t225 -940h-1458q18 -251 180.5 -392t421.5 -141q313 0 704 213v-446zM1606 1262q-13 220 -121.5 357.5t-325.5 137.5
q-221 0 -344.5 -136t-142.5 -359h934z" />
    <glyph glyph-name="Ecircumflex" unicode="&#xe6;" horiz-adv-x="3187" 
d="M1315 0v975h-8l-623 -975h-696l843 1118l-745 996h647l574 -897h8v897h553v-897h4l573 897h652l-750 -996l848 -1118h-701l-622 975h-4v-975h-553z" />
    <glyph glyph-name="Aacute" unicode="&#xe7;" horiz-adv-x="1819" 
d="M680 373q187 0 318.5 78t131.5 208q0 139 -101 196.5t-349 57.5h-299v369h237q247 0 347 57t100 177q0 221 -348 221q-157 0 -271 -27.5t-290 -99.5l-33 418q172 59 336 86.5t377 27.5q325 0 553.5 -121.5t228.5 -439.5q0 -328 -344 -471v-8q178 -54 291.5 -188
t113.5 -304q0 -643 -917 -643q-361 0 -664 74l33 442q187 -63 294 -86.5t255 -23.5z" />
    <glyph glyph-name="Edieresis" unicode="&#xe8;" horiz-adv-x="2503" 
d="M2241 0h-529v1462h-8l-774 -1462h-668v2109h529v-1450h8l770 1450h672v-2109z" />
    <glyph glyph-name="Egrave" unicode="&#xe9;" horiz-adv-x="2503" 
d="M582 2990h254q35 -156 141 -242t268 -86q163 0 272.5 86.5t145.5 241.5h254q-18 -275 -207 -449t-465 -174q-180 0 -329 79t-238 222t-96 322zM2241 0h-529v1462h-8l-774 -1462h-668v2109h529v-1450h8l770 1450h672v-2109z" />
    <glyph glyph-name="Iacute" unicode="&#xea;" 
d="M283 2114h548v-897h9l659 897h643l-786 -984l885 -1130h-697l-704 975h-9v-975h-548v2114z" />
    <glyph glyph-name="Icircumflex" unicode="&#xeb;" 
d="M311 2109h1684v-2109h-549v1700h-619v-1135q0 -133 -70.5 -274.5t-228 -240.5t-397.5 -99l-123 442q194 0 248.5 108.5t54.5 301.5v1306z" />
    <glyph glyph-name="Idieresis" unicode="&#xec;" horiz-adv-x="3187" 
d="M274 2109h795l520 -1507h8l521 1507h794v-2109h-508v1573h-8l-553 -1573h-500l-552 1573h-9v-1573h-508v2109z" />
    <glyph glyph-name="Igrave" unicode="&#xed;" horiz-adv-x="2503" 
d="M283 2109h548v-806h840v806h549v-2109h-549v877h-840v-877h-548v2109z" />
    <glyph glyph-name="Oacute" unicode="&#xee;" horiz-adv-x="2503" 
d="M1253 2159q309 0 563.5 -136t398.5 -389.5t144 -593.5q0 -305 -132.5 -553.5t-383.5 -392t-590 -143.5q-340 0 -591 143.5t-383 392.5t-132 553q0 340 144 594t397 389.5t565 135.5zM1253 377q287 0 410 210.5t123 518.5q0 168 -60.5 310.5t-181 229.5t-291.5 87
q-172 0 -292.5 -88.5t-180 -232t-59.5 -306.5q0 -307 121.5 -518t410.5 -211z" />
    <glyph glyph-name="Ocircumflex" unicode="&#xef;" horiz-adv-x="2503" 
d="M283 2109h1937v-2109h-549v1700h-840v-1700h-548v2109z" />
    <glyph glyph-name="apple" unicode="&#xf0;" horiz-adv-x="2503" 
d="M283 2114h524v-304h8q205 349 655 349q237 0 407 -86.5t277 -240t156 -348.5t49 -423q0 -226 -50 -425.5t-157.5 -353.5t-280.5 -242.5t-413 -88.5q-191 0 -336 62t-282 229h-9v-1102h-548v2974zM836 1061q0 -166 48 -322.5t156 -259t279 -102.5q168 0 273 104.5
t149.5 261t44.5 318.5q0 161 -43.5 313.5t-146 255.5t-269.5 103q-127 0 -220.5 -60t-153 -158.5t-88.5 -218.5t-29 -235z" />
    <glyph glyph-name="Ograve" unicode="&#xf1;" horiz-adv-x="1819" 
d="M1647 1655q-158 78 -373 78q-166 0 -293 -83.5t-195.5 -235.5t-68.5 -349q0 -306 146 -497t427 -191q203 0 418 98l25 -455q-220 -69 -549 -69q-336 0 -571 142t-352.5 393.5t-117.5 578.5q0 307 119.5 557t351 393.5t553.5 143.5q290 0 533 -70z" />
    <glyph glyph-name="Uacute" unicode="&#xf2;" horiz-adv-x="1896" 
d="M33 1683v426h1831v-426h-639v-1683h-549v1683h-643z" />
    <glyph glyph-name="Ucircumflex" unicode="&#xf3;" 
d="M1159 569h12l504 1545h561l-794 -2098q-118 -312 -162.5 -418.5t-136.5 -232.5t-233 -200t-345 -74q-193 0 -389 57l37 406q104 -37 283 -37q165 0 260.5 103.5t95.5 273.5l-807 2220h606z" />
    <glyph glyph-name="Ugrave" unicode="&#xf4;" horiz-adv-x="3564" 
d="M2056 3072v-1237h8q170 324 533 324q279 0 463 -148t270 -398t86 -552q0 -301 -86 -554t-270.5 -404.5t-462.5 -151.5q-195 0 -312.5 71.5t-220.5 215.5h-8v-1098h-549v1098h-8q-100 -143 -219 -215t-313 -72q-277 0 -462.5 151t-271.5 403.5t-86 555.5q0 304 86 553
t271 397t463 148q362 0 532 -324h8v1237h549zM2462 1733q-217 0 -311.5 -201.5t-94.5 -470.5q0 -281 87.5 -482.5t310.5 -201.5q206 0 297.5 207.5t91.5 476.5q0 263 -89 467.5t-292 204.5zM1102 1733q-140 0 -225.5 -103.5t-120.5 -256t-35 -312.5q0 -166 36.5 -321
t124 -259t228.5 -104q223 0 310 200.5t87 483.5q0 272 -94 472t-311 200z" />
    <glyph glyph-name="dotlessi" unicode="&#xf5;" 
d="M111 2114h647l413 -693l410 693h578l-631 -1008l713 -1106h-656l-471 786l-475 -786h-602l725 1106z" />
    <glyph glyph-name="circumflex" unicode="&#xf6;" horiz-adv-x="2503" 
d="M283 0v2109h548v-1699h840v1699h549v-1699h147v-902h-532v492h-1552z" />
    <glyph glyph-name="tilde" unicode="&#xf7;" horiz-adv-x="2351" 
d="M221 2109h549v-679q6 -273 320 -279q233 0 430 127v831h548v-2109h-548v852q-295 -127 -586 -127q-310 0 -511.5 173.5t-201.5 498.5v712z" />
    <glyph glyph-name="macron" unicode="&#xf8;" horiz-adv-x="3187" 
d="M1319 2109h549v-1699h487v1699h549v-2109h-2621v2109h548v-1699h488v1699z" />
    <glyph glyph-name="breve" unicode="&#xf9;" horiz-adv-x="3187" 
d="M283 0v2109h548v-1699h488v1699h549v-1699h487v1699h549v-1699h152v-902h-529v492h-2244z" />
    <glyph glyph-name="dotaccent" unicode="&#xfa;" horiz-adv-x="2253" 
d="M1221 389q149 0 246.5 70.5t97.5 212.5q0 137 -96.5 203.5t-247.5 66.5h-267v-553h267zM406 1700h-365v409h913v-786h299q391 0 621.5 -157.5t230.5 -510.5q0 -249 -119.5 -394.5t-320 -203t-473.5 -57.5h-786v1700z" />
    <glyph glyph-name="ring" unicode="&#xfb;" horiz-adv-x="3187" 
d="M2351 2109h549v-2109h-549v2109zM283 2109h548v-786h299q391 0 621.5 -157.5t230.5 -510.5q0 -249 -119.5 -394.5t-320 -203t-473.5 -57.5h-786v2109zM1098 389q149 0 246.5 70.5t97.5 212.5q0 137 -96.5 203.5t-247.5 66.5h-267v-553h267z" />
    <glyph glyph-name="cedilla" unicode="&#xfc;" horiz-adv-x="2126" 
d="M283 2109h548v-786h299q391 0 621.5 -157.5t230.5 -510.5q0 -249 -119.5 -394.5t-320 -203t-473.5 -57.5h-786v2109zM1098 389q149 0 246.5 70.5t97.5 212.5q0 137 -96.5 203.5t-247.5 66.5h-267v-553h267z" />
    <glyph glyph-name="hungarumlaut" unicode="&#xfd;" horiz-adv-x="1819" 
d="M1114 885h-733v393h725q-53 218 -197.5 342.5t-351.5 124.5q-217 0 -381 -78l-53 422q243 70 532 70q321 0 553 -143.5t351.5 -393.5t119.5 -557q0 -327 -117.5 -578.5t-352 -393.5t-570.5 -142q-329 0 -549 69l25 443q215 -98 426 -98q243 0 387.5 141t185.5 379z" />
    <glyph glyph-name="ogonek" unicode="&#xfe;" horiz-adv-x="3338" 
d="M1102 877h-271v-877h-548v2109h548v-806h287q49 263 192.5 457t358.5 296.5t473 102.5q293 0 534 -136t378 -390.5t137 -592.5q0 -304 -126 -553t-364 -392.5t-559 -143.5q-293 0 -517 119t-356.5 328.5t-166.5 478.5zM2142 377q177 0 283 103.5t149 267t43 358.5
q0 168 -53.5 311t-161 229.5t-260.5 86.5q-155 0 -262 -88.5t-160 -232t-53 -306.5q0 -309 107.5 -519t367.5 -210z" />
    <glyph glyph-name="caron" unicode="&#xff;" 
d="M1995 0h-549v860h-246q-138 0 -221 -205l-274 -655h-644l398 856q56 125 188 172v8q-191 52 -306.5 185t-115.5 299q0 271 133 399.5t328 159t506 30.5h803v-2109zM1073 1700q-291 0 -291 -230q0 -118 89 -179.5t214 -61.5h361v471h-373z" />
    <glyph glyph-name="ntilde" unicode="&#x2013;" horiz-adv-x="2048" 
d="M0 913v377h2048v-377h-2048z" />
    <glyph glyph-name="oacute" unicode="&#x2014;" horiz-adv-x="4096" 
d="M0 913v377h4096v-377h-4096z" />
    <glyph glyph-name="edieresis" unicode="&#x2018;" horiz-adv-x="1139" 
d="M139 1835l373 1024h487l-258 -1024h-602z" />
    <glyph glyph-name="iacute" unicode="&#x2019;" horiz-adv-x="1139" 
d="M139 1835l262 1024h598l-376 -1024h-484z" />
    <glyph glyph-name="Ccedilla" unicode="&#x201a;" horiz-adv-x="1139" 
d="M139 -451l262 1024h598l-376 -1024h-484z" />
    <glyph glyph-name="igrave" unicode="&#x201c;" horiz-adv-x="1970" 
d="M139 1835l373 1024h487l-258 -1024h-602zM971 1835l372 1024h488l-258 -1024h-602z" />
    <glyph glyph-name="icircumflex" unicode="&#x201d;" horiz-adv-x="1970" 
d="M139 1835l262 1024h598l-376 -1024h-484zM971 1835l262 1024h598l-377 -1024h-483z" />
    <glyph glyph-name="Ntilde" unicode="&#x201e;" horiz-adv-x="1970" 
d="M971 -451l262 1024h598l-377 -1024h-483zM139 -451l262 1024h598l-376 -1024h-484z" />
    <glyph glyph-name="Udieresis" unicode="&#x2020;" 
d="M242 1782v426h635v651h524v-651h635v-426h-635v-1782h-524v1782h-635z" />
    <glyph glyph-name="aacute" unicode="&#x2021;" 
d="M242 1872v401h635v586h524v-586h635v-401h-635v-868h635v-402h-635v-602h-524v602h-635v402h635v868h-635z" />
    <glyph glyph-name="idieresis" unicode="&#x2022;" horiz-adv-x="2048" 
d="M311 1430q0 194 96 357t259.5 259t357.5 96q193 0 358 -96t262 -260t97 -356t-97 -357.5t-263 -262.5t-357 -97q-192 0 -356.5 96.5t-260.5 261.5t-96 359z" />
    <glyph glyph-name="Odieresis" unicode="&#x2026;" horiz-adv-x="4096" 
d="M971 0h-574v573h574v-573zM2335 0h-574v573h574v-573zM3699 0h-574v573h574v-573z" />
    <glyph glyph-name="acircumflex" unicode="&#x2030;" horiz-adv-x="4096" 
d="M618 1786q135 0 168 103t33 311q0 205 -33.5 309t-167.5 104q-136 0 -170 -104t-34 -309q0 -208 33.5 -311t170.5 -103zM299 -90l1757 3039h336l-1757 -3039h-336zM618 1491q-581 0 -581 721q0 329 132 512.5t449 183.5q315 0 446.5 -183.5t131.5 -512.5
q0 -721 -578 -721zM2109 246q134 0 167.5 103t33.5 310q0 206 -33.5 310t-167.5 104q-136 0 -170 -104t-34 -310q0 -207 34 -310t170 -103zM2109 -49q-581 0 -581 721q0 329 132 512.5t449 183.5q315 0 446.5 -183.5t131.5 -512.5q0 -721 -578 -721zM3486 -49
q-582 0 -582 721q0 329 132 512.5t450 183.5q314 0 445.5 -183.5t131.5 -512.5q0 -721 -577 -721zM3486 246q133 0 166.5 103t33.5 310q0 206 -33.5 310t-166.5 104q-137 0 -171 -104t-34 -310q0 -207 34 -310t171 -103z" />
    <glyph glyph-name="atilde" unicode="&#x2039;" horiz-adv-x="1364" 
d="M201 1102l483 840h516l-450 -840l450 -840h-516z" />
    <glyph glyph-name="otilde" unicode="&#x203a;" horiz-adv-x="1364" 
d="M1163 1102l-483 -840h-516l450 840l-450 840h516z" />
    <glyph glyph-name="ocircumflex" unicode="&#x2122;" horiz-adv-x="4096" 
d="M1905 1155v1704h594l405 -1065l401 1065h594v-1704h-401v1204h-8l-434 -1204h-308l-434 1204h-8v-1204h-401zM676 1155v1376h-479v328h1384v-328h-479v-1376h-426z" />
    <glyph glyph-name="summation" unicode="&#x2219;" horiz-adv-x="1139" 
d="M569 848q-140 0 -227.5 88.5t-87.5 226.5q0 140 87 228t228 88q142 0 229 -88t87 -228q0 -138 -87.5 -226.5t-228.5 -88.5z" />
    </font>
</defs>
</svg>
