<?xml version="1.0" standalone="no"?>
<!DOCTYPE svg PUBLIC "-//W3C//DTD SVG 1.1//EN" "http://www.w3.org/Graphics/SVG/1.1/DTD/svg11.dtd" >
<svg xmlns="http://www.w3.org/2000/svg" xmlns:xlink="http://www.w3.org/1999/xlink" version="1.1">
<metadata>
Created by FontForge 20161013 at Fri Jan  1 02:30:17 1904
 By ,,,
(c) 1992, Tilde Ltd. AG Fonts Collection. Created by Andrejs Grinbergs.
</metadata>
<defs>
<font id="AGForeignerLightPlainMedium" horiz-adv-x="2277" >
  <font-face 
    font-family="AG Foreigner Light-Plain"
    font-weight="400"
    font-stretch="normal"
    units-per-em="4096"
    panose-1="2 11 114 0 0 0 0 0 0 0"
    ascent="3276"
    descent="-820"
    x-height="2089"
    cap-height="2859"
    bbox="-127 -885 4096 3449"
    underline-thickness="20"
    underline-position="-163"
    unicode-range="U+0020-2219"
  />
<missing-glyph horiz-adv-x="3072" 
d="M512 0v2560h2048v-2560h-2048zM2494 66v2428h-1916v-2428h1916z" />
    <glyph glyph-name=".notdef" horiz-adv-x="3072" 
d="M512 0v2560h2048v-2560h-2048zM2494 66v2428h-1916v-2428h1916z" />
    <glyph glyph-name=".null" horiz-adv-x="0" 
 />
    <glyph glyph-name="nonmarkingreturn" horiz-adv-x="0" 
 />
    <glyph glyph-name="space" unicode=" " horiz-adv-x="1139" 
 />
    <glyph glyph-name="exclam" unicode="!" horiz-adv-x="1593" 
d="M963 2859l-50 -2167h-233l-49 2167h332zM631 0v344h332v-344h-332z" />
    <glyph glyph-name="quotedbl" unicode="&#x22;" 
d="M733 1966v893h258v-893h-258zM1286 1966v893h258v-893h-258z" />
    <glyph glyph-name="numbersign" unicode="#" 
d="M438 0l127 897h-426v221h455l90 623h-438v221h467l127 897h250l-127 -897h532l127 897h250l-127 -897h393v-221h-422l-86 -623h393v-221h-426l-127 -897h-249l127 897h-533l-127 -897h-250zM1380 1118l86 623h-532l-86 -623h532z" />
    <glyph glyph-name="dollar" unicode="$" 
d="M1262 1257v-1024q183 52 290 190t107 359q0 140 -103 251t-294 224zM1053 1692v950q-186 -36 -304 -152.5t-118 -318.5q0 -146 107.5 -255t314.5 -224zM1053 3158h209v-250q308 0 553 -94l-46 -258q-173 99 -507 106v-1085q214 -116 353.5 -217.5t233 -251.5t93.5 -350
q0 -326 -191.5 -522.5t-488.5 -260.5v-340h-209v320q-17 -4 -49 -4q-365 0 -648 123l29 291q264 -168 631 -168q20 0 37 4v1175q-220 119 -365 220t-242.5 242.5t-97.5 324.5q0 193 90 347t250.5 251.5t364.5 130.5v266z" />
    <glyph glyph-name="percent" unicode="%" horiz-adv-x="4096" 
d="M2372 737q0 226 68.5 398.5t214 270t364.5 97.5q220 0 364.5 -97t213.5 -270t69 -399q0 -347 -160.5 -556.5t-486.5 -209.5t-486.5 209.5t-160.5 556.5zM2630 737q0 -225 89.5 -384.5t299.5 -159.5t299.5 158t89.5 386q0 227 -89.5 386t-299.5 159t-299.5 -160
t-89.5 -385zM430 2122q0 349 160.5 557.5t486.5 208.5q220 0 365.5 -98t213.5 -270t68 -398t-68.5 -398.5t-214 -270t-364.5 -97.5q-326 0 -486.5 209t-160.5 557zM688 2122q0 -225 89.5 -385t299.5 -160t299.5 159t89.5 386q0 228 -89 386t-300 158t-300 -159.5t-89 -384.5
zM1081 -90l1692 3039h238l-1692 -3039h-238z" />
    <glyph glyph-name="ampersand" unicode="&#x26;" horiz-adv-x="2732" 
d="M1262 1540l753 -840q246 353 246 869h246q0 -281 -81.5 -551.5t-238.5 -480.5l488 -529h-361l-303 320q-335 -377 -868 -377q-252 0 -465.5 87t-343 268t-129.5 444q0 570 676 831q-187 215 -280 365.5t-93 339.5q0 195 110 336t287 213.5t373 72.5q175 0 329.5 -65.5
t248.5 -200t94 -324.5q0 -207 -92.5 -348t-226.5 -226.5t-369 -203.5zM1855 504l-831 917q-222 -87 -379.5 -262.5t-157.5 -396.5q0 -278 194 -434t470 -156q193 0 388 91.5t316 240.5zM791 2269q0 -150 81.5 -277.5t241.5 -303.5q178 84 287 149t187.5 172.5t78.5 263.5
q0 199 -110 306.5t-295 107.5q-195 0 -333 -109.5t-138 -308.5z" />
    <glyph glyph-name="quotesingle" unicode="'" horiz-adv-x="1139" 
d="M442 1966v893h258v-893h-258z" />
    <glyph glyph-name="parenleft" unicode="(" horiz-adv-x="1139" 
d="M1044 -573h-172q-221 348 -365.5 620t-239.5 582.5t-95 632.5t95 632t238.5 580t366.5 623h172q-165 -319 -255.5 -506t-174 -405.5t-134 -453.5t-50.5 -470t50.5 -469.5t134 -454t161 -380t268.5 -531.5z" />
    <glyph glyph-name="parenright" unicode=")" horiz-adv-x="1139" 
d="M94 3097h172q220 -345 365.5 -619t240.5 -583.5t95 -632.5q0 -322 -95 -632.5t-242 -586.5t-364 -616h-172q164 314 254 499.5t175 408.5t135.5 457.5t50.5 469.5t-50.5 470t-135.5 457t-182 421.5t-247 486.5z" />
    <glyph glyph-name="asterisk" unicode="*" 
d="M1020 2859h237l-28 -627l594 230l78 -238l-603 -172l398 -487l-205 -156l-352 537l-344 -537l-201 156l385 487l-602 172l69 238l603 -230z" />
    <glyph glyph-name="plus" unicode="+" horiz-adv-x="2458" 
d="M188 897v283h897v897h283v-897h897v-283h-897v-897h-283v897h-897z" />
    <glyph glyph-name="comma" unicode="," horiz-adv-x="1139" 
d="M221 -549l238 893h344l-324 -893h-258z" />
    <glyph glyph-name="hyphen" unicode="-" horiz-adv-x="1364" 
d="M168 963v282h1028v-282h-1028z" />
    <glyph glyph-name="period" unicode="." horiz-adv-x="1139" 
d="M401 0v344h332v-344h-332z" />
    <glyph glyph-name="slash" unicode="/" horiz-adv-x="1139" 
d="M-127 -49l1110 2957h283l-1110 -2957h-283z" />
    <glyph glyph-name="zero" unicode="0" 
d="M1139 2642q-274 0 -419 -189t-191 -454t-46 -569q0 -305 46 -570t191 -454t419 -189t419 189t190.5 455t45.5 569q0 302 -45.5 568t-190.5 455t-419 189zM1139 2888q355 0 565 -213.5t291.5 -538.5t81.5 -706q0 -260 -36 -507t-135 -464t-288.5 -352.5t-478.5 -135.5
q-288 0 -477 135t-289 352.5t-136 464.5t-36 507q0 381 81.5 706t291.5 538.5t565 213.5z" />
    <glyph glyph-name="one" unicode="1" 
d="M504 2318l647 541h254v-2859h-283v2540l-463 -406z" />
    <glyph glyph-name="two" unicode="2" 
d="M205 0v246l655 725q320 356 504 638t184 517q0 148 -66.5 266.5t-181.5 184t-256 65.5q-334 0 -688 -205l-49 258q392 193 721 193q237 0 424 -81.5t295 -250t108 -418.5q0 -286 -214 -610.5t-572 -716.5l-516 -565h1368v-246h-1716z" />
    <glyph glyph-name="three" unicode="3" 
d="M614 1360v246h74q251 0 461.5 37t360 164t149.5 372q0 224 -199 343.5t-456 119.5q-319 0 -639 -152l-25 267q356 131 692 131q186 0 348 -40.5t289.5 -127t200 -221.5t72.5 -320q0 -169 -75 -309.5t-209 -235.5t-310 -139v-8q185 -9 320 -100.5t204.5 -245t69.5 -346.5
q0 -251 -136 -439t-372 -286.5t-525 -98.5q-398 0 -704 115l33 270q294 -139 688 -139q294 0 513.5 151t219.5 451q0 541 -782 541h-263z" />
    <glyph glyph-name="four" unicode="4" 
d="M1458 905v1671h-8l-1098 -1671h1106zM94 659v279l1286 1921h361v-1954h422v-246h-422v-659h-283v659h-1364z" />
    <glyph glyph-name="five" unicode="5" 
d="M1876 2859v-246h-1184l-20 -917q174 61 434 61q209 0 375 -56.5t282 -164t178 -263t62 -351.5q0 -308 -130.5 -521.5t-365.5 -321.5t-544 -108q-342 0 -611 103v291q269 -148 611 -148q194 0 367.5 71t281.5 217.5t108 358.5q0 331 -176 489t-540 158q-316 0 -619 -90
l29 1438h1462z" />
    <glyph glyph-name="six" unicode="6" 
d="M1143 -29q-517 0 -717.5 378.5t-200.5 977.5q0 341 68 620t220 491.5t401 331t602 118.5q189 0 458 -66l-24 -270q-202 90 -471 90q-515 0 -743 -343t-228 -845h8q107 174 284.5 263t387.5 89q351 0 620 -206.5t269 -686.5q0 -424 -250 -683t-684 -259zM1188 1561
q-305 0 -478 -174t-173 -461q0 -291 159 -500t455 -209q203 0 348.5 87t220 241.5t74.5 347.5q0 317 -155.5 492.5t-450.5 175.5z" />
    <glyph glyph-name="seven" unicode="7" 
d="M565 0l1139 2613h-1466v246h1744v-246l-1105 -2613h-312z" />
    <glyph glyph-name="eight" unicode="8" 
d="M279 2220q0 172 81 300.5t211 209t280.5 119.5t287.5 39q233 0 427.5 -72t311.5 -222.5t117 -373.5q0 -414 -586 -733q222 -79 366.5 -167.5t229 -230.5t84.5 -356q0 -389 -278.5 -575.5t-671.5 -186.5q-240 0 -458 84.5t-355.5 258t-137.5 419.5q0 208 83 351.5
t227 235.5t350 167q-569 268 -569 733zM1806 758q0 128 -62.5 223.5t-158 162t-203 119t-243.5 117.5q-250 -102 -368.5 -164t-209 -180t-90.5 -303q0 -153 96 -271t251.5 -181.5t320.5 -63.5q179 0 330 55.5t244 176.5t93 309zM561 2195q0 -149 87.5 -263.5t205.5 -188
t285 -154.5q254 126 413.5 267.5t159.5 338.5q0 143 -84 244.5t-217 152t-272 50.5q-154 0 -286.5 -50.5t-212 -152t-79.5 -244.5z" />
    <glyph glyph-name="nine" unicode="9" 
d="M1135 2888q518 0 717.5 -378.5t199.5 -977.5q0 -340 -68 -620t-219.5 -492t-402 -330.5t-600.5 -118.5q-188 0 -459 66l25 270q200 -90 471 -90q350 0 567.5 168t310 437t92.5 583h-8q-105 -174 -284.5 -263t-386.5 -89q-216 0 -417 81.5t-336.5 281t-135.5 530.5
q0 279 111.5 492t322.5 331.5t500 118.5zM1090 1298q301 0 476 174t175 461q0 185 -68 347t-207 262t-340 100q-203 0 -348.5 -87.5t-220 -241.5t-74.5 -347q0 -317 156 -492.5t451 -175.5z" />
    <glyph glyph-name="colon" unicode=":" horiz-adv-x="1139" 
d="M733 2089v-344h-332v344h332zM401 0v344h332v-344h-332z" />
    <glyph glyph-name="semicolon" unicode=";" horiz-adv-x="1139" 
d="M221 -549l238 893h344l-324 -893h-258zM733 2089v-344h-332v344h332z" />
    <glyph glyph-name="less" unicode="&#x3c;" horiz-adv-x="2458" 
d="M2265 2105v-270l-1761 -799l1761 -798v-271l-2077 942v254z" />
    <glyph glyph-name="equal" unicode="=" horiz-adv-x="2458" 
d="M188 1307v282h2077v-282h-2077zM188 483v283h2077v-283h-2077z" />
    <glyph glyph-name="greater" unicode="&#x3e;" horiz-adv-x="2458" 
d="M193 -33v271l1765 798l-1765 799v270l2076 -942v-254z" />
    <glyph glyph-name="question" unicode="?" horiz-adv-x="2048" 
d="M365 2548l-13 258q345 102 598 102q218 0 397 -80t284.5 -245t105.5 -408q0 -225 -87.5 -376.5t-264 -342t-263 -337.5t-86.5 -365v-62h-258v53q0 252 86.5 412t256 343.5t251.5 321t82 353.5q0 223 -144.5 355t-371.5 132q-221 0 -573 -114zM745 0v344h332v-344h-332z
" />
    <glyph glyph-name="at" unicode="@" horiz-adv-x="3277" 
d="M1090 1188q6 -185 85 -289t209 -104q186 0 340.5 139t243 344t88.5 381q0 196 -97 282.5t-230 86.5q-136 0 -286.5 -111t-251.5 -304.5t-101 -424.5zM2523 2204l-348 -1114q-41 -115 -41 -201q0 -94 90 -94q153 0 292 120.5t224.5 324t85.5 431.5q0 232 -94.5 417.5
t-261 313.5t-379 194t-449.5 66q-339 0 -615.5 -159t-434.5 -440.5t-158 -628.5q0 -352 158 -635t434.5 -442.5t615.5 -159.5q341 0 624 122.5t458 331.5h250q-94 -163 -231 -293t-309 -220.5t-375 -138.5t-417 -48q-356 0 -634.5 122.5t-466.5 333.5t-282.5 476t-94.5 547
q0 284 95 549.5t282 475t466 331.5t635 122q273 0 533 -80t468.5 -239t331 -393t122.5 -525q0 -249 -91 -458.5t-236 -357.5t-306.5 -227t-292.5 -79q-275 0 -324 250h-8q-104 -120 -211.5 -185t-292.5 -65q-156 0 -283.5 82.5t-198.5 223t-71 308.5q0 268 120.5 527
t338 421t488.5 162q316 0 450 -315l86 246h258z" />
    <glyph glyph-name="A" unicode="A" horiz-adv-x="2736" 
d="M53 0l1172 2859h319l1135 -2859h-295l-307 766h-1442l-307 -766h-275zM1982 1012l-618 1577l-623 -1577h1241z" />
    <glyph glyph-name="B" unicode="B" 
d="M328 0v2859h680q185 0 346 -34.5t287.5 -115t199 -218.5t72.5 -337q0 -548 -520 -651v-8q182 -33 318.5 -122t212 -231t75.5 -327q0 -297 -146 -479t-392 -259t-564 -77h-569zM610 1364v-1118h295q344 0 577.5 123t233.5 434q0 237 -119.5 361t-302.5 162t-434 38h-250z
M618 2613v-1003h316q696 0 696 532q0 275 -186.5 373t-435.5 98h-390z" />
    <glyph glyph-name="C" unicode="C" horiz-adv-x="2732" 
d="M2331 2802l-17 -262q-234 122 -639 122q-359 0 -622.5 -158t-400 -438t-136.5 -636q0 -362 134 -642t395.5 -435.5t629.5 -155.5q435 0 639 122l17 -245q-106 -64 -296 -93.5t-360 -29.5q-334 0 -602 105.5t-456 302t-286 470t-98 601.5q0 323 101.5 596.5t290 470.5
t456.5 304t594 107q160 0 359 -27t297 -79z" />
    <glyph glyph-name="D" unicode="D" horiz-adv-x="2732" 
d="M610 2613v-2367h234q1339 0 1339 1204q0 319 -88.5 543.5t-246 360.5t-365.5 197.5t-459 61.5h-414zM328 0v2859h708q496 0 815.5 -178t467 -498t147.5 -749q0 -500 -207 -821t-574.5 -467t-857.5 -146h-499z" />
    <glyph glyph-name="E" unicode="E" horiz-adv-x="2048" 
d="M352 0v2859h1401v-246h-1118v-1020h1061v-245h-1061v-1102h1167v-246h-1450z" />
    <glyph glyph-name="F" unicode="F" horiz-adv-x="1819" 
d="M315 0v2859h1360v-246h-1077v-1020h1028v-245h-1028v-1348h-283z" />
    <glyph glyph-name="G" unicode="G" horiz-adv-x="2957" 
d="M2310 299v1004h-663v245h946v-1421q-403 -176 -889 -176q-334 0 -602 105.5t-456 302t-286 470t-98 601.5q0 323 100.5 596t289.5 470.5t457 304.5t595 107q195 0 414 -33.5t352 -101.5l-33 -262q-271 151 -733 151q-359 0 -622.5 -158t-400 -438t-136.5 -636
q0 -362 133.5 -641.5t395.5 -435.5t630 -156q438 0 606 102z" />
    <glyph glyph-name="H" unicode="H" horiz-adv-x="2732" 
d="M360 0v2859h283v-1266h1446v1266h283v-2859h-283v1348h-1446v-1348h-283z" />
    <glyph glyph-name="I" unicode="I" horiz-adv-x="909" 
d="M315 0v2859h283v-2859h-283z" />
    <glyph glyph-name="J" unicode="J" horiz-adv-x="1364" 
d="M1024 2859v-2122q0 -226 -70.5 -403.5t-221 -280t-380.5 -102.5q-167 0 -295 49v250q106 -53 267 -53q221 0 319 148t98 384v2130h283z" />
    <glyph glyph-name="K" unicode="K" horiz-adv-x="2503" 
d="M389 0v2859h283v-1282l1286 1282h369l-1385 -1348l1503 -1511h-389l-1384 1430v-1430h-283z" />
    <glyph glyph-name="L" unicode="L" horiz-adv-x="1819" 
d="M328 0v2859h282v-2613h1147v-246h-1429z" />
    <glyph glyph-name="M" unicode="M" horiz-adv-x="3641" 
d="M352 0v2859h439l1044 -2515l1049 2515h405v-2859h-283v2576h-8l-1040 -2576h-242l-1073 2576h-8v-2576h-283z" />
    <glyph glyph-name="N" unicode="N" horiz-adv-x="2732" 
d="M315 0v2859h357l1454 -2515h8v2515h283v-2859h-381l-1430 2466h-8v-2466h-283z" />
    <glyph glyph-name="O" unicode="O" horiz-adv-x="2957" 
d="M221 1430q0 399 139 737t423.5 539.5t695.5 201.5q312 0 551.5 -118.5t395 -323.5t233 -472.5t77.5 -563.5q-3 -331 -85 -604t-241 -468.5t-394 -301t-537 -105.5t-537 105.5t-395 302.5t-241.5 468.5t-84.5 602.5zM1479 2662q-319 0 -539.5 -174.5t-328 -456.5
t-107.5 -601t107.5 -601t328 -457t539.5 -175q318 0 539 175.5t328.5 459t107.5 598.5t-107.5 598.5t-328.5 458.5t-539 175z" />
    <glyph glyph-name="P" unicode="P" horiz-adv-x="2048" 
d="M352 0v2859h705q268 0 469 -91t308.5 -273t107.5 -447q0 -257 -119.5 -441t-328 -277t-466.5 -93h-393v-1237h-283zM635 2613v-1130h196q257 0 431 37.5t285.5 161.5t111.5 366q0 271 -147 418t-418 147h-459z" />
    <glyph glyph-name="Q" unicode="Q" horiz-adv-x="2957" 
d="M2597 -532h-377l-508 503q-92 -20 -233 -20q-302 0 -537 105.5t-395 302.5t-241.5 468.5t-84.5 602.5q0 399 139 737t423.5 539.5t695.5 201.5q312 0 551.5 -118.5t395 -323.5t233 -472.5t77.5 -563.5q-3 -253 -51 -472t-141.5 -397t-231.5 -308t-317 -204zM1479 2662
q-319 0 -539.5 -174.5t-328 -456.5t-107.5 -601t107.5 -601t328 -457t539.5 -175q318 0 539 175.5t328.5 459t107.5 598.5t-107.5 598.5t-328.5 458.5t-539 175z" />
    <glyph glyph-name="R" unicode="R" 
d="M643 2613v-1020h299q181 0 343 51t266 169.5t104 304.5q0 219 -93 327.5t-242 138t-386 29.5h-291zM360 0v2859h738q260 0 448 -77.5t289.5 -242.5t101.5 -421q0 -179 -84 -321t-228.5 -229t-321.5 -110v-8q107 -14 172 -56.5t100 -100.5t96 -187l488 -1106h-312
l-413 967q-79 178 -154 259t-159.5 101.5t-243.5 20.5h-234v-1348h-283z" />
    <glyph glyph-name="S" unicode="S" horiz-adv-x="2048" 
d="M246 74l28 291q264 -168 631 -168q181 0 327 63.5t231 195.5t85 326q0 185 -151 304.5t-486 306t-504 353t-169 417.5q0 223 120 393t327.5 261t457.5 91q311 0 561 -94l-45 -258q-192 106 -520 106q-256 0 -437.5 -118.5t-181.5 -372.5q0 -188 144.5 -298.5
t482.5 -293.5t511 -361t173 -460q0 -271 -136 -453.5t-351 -268t-451 -85.5q-366 0 -647 123z" />
    <glyph glyph-name="T" unicode="T" horiz-adv-x="2048" 
d="M885 0v2613h-844v246h1970v-246h-844v-2613h-282z" />
    <glyph glyph-name="U" unicode="U" horiz-adv-x="2732" 
d="M2404 2859v-1860q0 -300 -96.5 -506t-252 -324t-334 -168t-353.5 -50q-173 0 -351.5 49.5t-334.5 168t-253 326t-97 504.5v1860h282v-1860q0 -238 86.5 -419t257 -282t410.5 -101t410.5 101t257 282t86.5 419v1860h282z" />
    <glyph glyph-name="V" unicode="V" horiz-adv-x="2503" 
d="M2478 2859l-1085 -2859h-303l-1065 2859h299l921 -2576l955 2576h278z" />
    <glyph glyph-name="W" unicode="W" horiz-adv-x="3867" 
d="M3830 2859l-828 -2859h-336l-724 2540h-9l-737 -2540h-340l-819 2859h291l704 -2540h8l734 2540h340l720 -2540h9l716 2540h271z" />
    <glyph glyph-name="X" unicode="X" horiz-adv-x="2503" 
d="M29 0l1065 1503l-959 1356h332l803 -1155l811 1155h315l-962 -1356l1040 -1503h-344l-873 1303l-905 -1303h-323z" />
    <glyph glyph-name="Y" unicode="Y" horiz-adv-x="2503" 
d="M1110 0v1212l-1061 1647h328l872 -1397l897 1397h308l-1061 -1647v-1212h-283z" />
    <glyph glyph-name="Z" unicode="Z" horiz-adv-x="2048" 
d="M86 0v246l1491 2367h-1454v246h1753v-246l-1483 -2367h1532v-246h-1839z" />
    <glyph glyph-name="bracketleft" unicode="[" horiz-adv-x="1139" 
d="M283 -573v3670h663v-197h-405v-3277h405v-196h-663z" />
    <glyph glyph-name="backslash" unicode="\" horiz-adv-x="1139" 
d="M156 2908l1110 -2957h-283l-1110 2957h283z" />
    <glyph glyph-name="bracketright" unicode="]" horiz-adv-x="1139" 
d="M856 3097v-3670h-663v196h405v3277h-405v197h663z" />
    <glyph glyph-name="asciicircum" unicode="^" horiz-adv-x="2458" 
d="M205 1085l893 1774h262l893 -1774h-291l-733 1491l-733 -1491h-291z" />
    <glyph glyph-name="underscore" unicode="_" horiz-adv-x="2048" 
d="M0 -512v205h2048v-205h-2048z" />
    <glyph glyph-name="grave" unicode="`" horiz-adv-x="909" 
d="M307 2933l381 -590h-188l-516 590h323z" />
    <glyph glyph-name="a" unicode="a" horiz-adv-x="2048" 
d="M1524 0v336h-8q-81 -179 -271 -282t-393 -103q-271 0 -424.5 99.5t-208.5 232.5t-55 258q0 247 117 399t305 223t395 91t469 20h49v106q0 275 -109.5 406t-365.5 131q-346 0 -614 -172v250q123 60 299.5 101.5t314.5 41.5q258 0 420 -81t237.5 -252t75.5 -445v-922
q0 -295 21 -438h-254zM1499 926v127h-74q-438 0 -708.5 -98t-270.5 -406q0 -195 121 -286t314 -91q394 0 506 229.5t112 524.5z" />
    <glyph glyph-name="b" unicode="b" 
d="M299 0v3072h258v-1335h8q23 66 104 161t221 167.5t327 72.5q295 0 488 -137.5t282.5 -383t89.5 -573.5q0 -313 -97 -561.5t-291 -390t-472 -141.5q-451 0 -652 381h-8v-332h-258zM1794 1044q0 227 -55.5 423.5t-193.5 323t-369 126.5q-220 0 -359 -131t-199.5 -330.5
t-60.5 -411.5q0 -207 63 -408t201.5 -332.5t354.5 -131.5q231 0 369 127t193.5 322.5t55.5 422.5z" />
    <glyph glyph-name="c" unicode="c" horiz-adv-x="1819" 
d="M1704 2056l-21 -246q-240 107 -446 107q-246 0 -423.5 -111t-270 -309t-92.5 -453q0 -177 53 -336t151.5 -280t240 -188.5t312.5 -67.5q215 0 471 94l25 -241q-210 -74 -537 -74q-244 0 -432 86t-314.5 238t-189.5 351t-63 418q0 316 129 566.5t364.5 389t538.5 138.5
q261 0 504 -82z" />
    <glyph glyph-name="d" unicode="d" 
d="M1978 3072v-3072h-258v332h-8q-199 -381 -651 -381q-277 0 -471.5 141.5t-291.5 390t-97 561.5q0 328 89 573.5t282 383t489 137.5q186 0 326 -72.5t221 -167.5t104 -161h8v1335h258zM483 1044q0 -227 56 -423t194.5 -322.5t368.5 -126.5q216 0 354 131.5t201 332.5
t63 408t-63 408.5t-201 333t-354 131.5q-230 0 -368.5 -126t-194.5 -323t-56 -424z" />
    <glyph glyph-name="e" unicode="e" horiz-adv-x="2048" 
d="M1724 328v-262q-280 -115 -606 -115q-492 0 -721 295.5t-229 797.5q0 315 110 565t310 389.5t461 139.5q418 0 624.5 -290t206.5 -746v-131h-1429q0 -226 79.5 -407.5t235 -286.5t373.5 -105q136 0 313.5 48t271.5 108zM451 1192h1146q0 193 -55 357.5t-175.5 266
t-301.5 101.5q-182 0 -322 -106.5t-216 -275t-76 -343.5z" />
    <glyph glyph-name="f" unicode="f" horiz-adv-x="1364" 
d="M500 0v1868h-422v221h422v152q0 209 14 351t66.5 264t165.5 193.5t307 71.5q172 0 241 -41l-16 -225q-82 45 -205 45q-136 0 -205.5 -70.5t-89.5 -176t-20 -245.5v-139v-180h471v-221h-471v-1868h-258z" />
    <glyph glyph-name="g" unicode="g" 
d="M483 1044q0 -344 149 -583.5t453 -239.5q219 0 362 120.5t208 310.5t65 392q0 873 -618 873q-230 0 -368.5 -126t-194.5 -323t-56 -424zM1978 2089v-1917q0 -475 -236.5 -766t-742.5 -291q-273 0 -630 111l20 258q289 -148 615 -148q240 0 387 82t217.5 224t93 323
t22.5 445h-8q-187 -410 -635 -410q-312 0 -510 156t-284 393.5t-86 494.5q0 328 89 573.5t282 383t489 137.5q154 0 260 -21t201 -82t190 -184h8v238h258z" />
    <glyph glyph-name="h" unicode="h" 
d="M324 0v3072h258v-1335h8q86 180 257 290.5t394 110.5q395 0 554 -232.5t159 -656.5v-1249h-258v1245q0 320 -102 496t-394 176q-215 0 -354 -117.5t-201.5 -301t-62.5 -380.5v-1118h-258z" />
    <glyph glyph-name="i" unicode="i" horiz-adv-x="909" 
d="M324 0v2089h258v-2089h-258zM582 2990v-344h-258v344h258z" />
    <glyph glyph-name="j" unicode="j" horiz-adv-x="909" 
d="M-115 -864v225q77 -25 156 -25q178 0 230.5 101.5t52.5 300.5v2351h258v-2384q0 -279 -104 -434.5t-367 -155.5q-118 0 -226 21zM582 2990v-344h-258v344h258z" />
    <glyph glyph-name="k" unicode="k" horiz-adv-x="2048" 
d="M324 0v3072h258v-1839l934 856h331l-1020 -926l1143 -1163h-356l-1032 1073v-1073h-258z" />
    <glyph glyph-name="l" unicode="l" horiz-adv-x="909" 
d="M324 0v3072h258v-3072h-258z" />
    <glyph glyph-name="m" unicode="m" horiz-adv-x="3412" 
d="M3105 0h-258v1389q0 528 -443 528q-145 0 -274 -84t-208 -257.5t-79 -420.5v-1155h-258v1389q0 528 -442 528q-145 0 -274.5 -84.5t-208 -257.5t-78.5 -420v-1155h-258v1597q0 324 -17 492h250v-352l8 -4q70 123 129 198.5t189 141t334 65.5q183 0 346 -99t206 -343h9
q74 194 252 318t415 124q204 0 354.5 -89t228 -248t77.5 -363v-1438z" />
    <glyph glyph-name="n" unicode="n" 
d="M324 0v1597q0 324 -17 492h250v-373h8q83 183 234.5 302.5t441.5 119.5q367 0 540 -217.5t173 -585.5v-1335h-258v1270q0 647 -496 647q-220 0 -359.5 -112.5t-199 -285t-59.5 -364.5v-1155h-258z" />
    <glyph glyph-name="o" unicode="o" 
d="M164 1044q0 296 106 545.5t327 399t542 149.5t542 -149.5t327 -399t106 -545.5q0 -216 -59 -415t-178.5 -350.5t-306 -239.5t-431.5 -88q-321 0 -542 149.5t-327 398.5t-106 545zM446 1044q0 -243 80.5 -442.5t238 -314.5t374.5 -115q218 0 374.5 115t237 314.5
t80.5 442.5q0 244 -80.5 443.5t-237 314.5t-374.5 115q-217 0 -374.5 -115t-238 -314.5t-80.5 -443.5z" />
    <glyph glyph-name="p" unicode="p" 
d="M299 -860v2949h258l-16 -381h8q65 113 129.5 196t202 158.5t336.5 75.5q295 0 488 -137.5t282.5 -383t89.5 -573.5q0 -313 -97 -561.5t-291 -390t-472 -141.5q-241 0 -398 100t-254 305h-8v-1216h-258zM1794 1044q0 227 -55.5 423.5t-193.5 323t-369 126.5
q-216 0 -354.5 -131.5t-201.5 -333t-63 -408.5t63 -408t201.5 -332.5t354.5 -131.5q231 0 369 127t193.5 322.5t55.5 422.5z" />
    <glyph glyph-name="q" unicode="q" 
d="M1978 2089v-2949h-258v1216h-8q-96 -205 -253 -305t-398 -100q-277 0 -471.5 141.5t-291.5 390t-97 561.5q0 328 89 573.5t282 383t489 137.5q281 0 416 -117.5t235 -271.5h8v340h258zM483 1044q0 -227 56 -423t194.5 -322.5t368.5 -126.5q216 0 354 131.5t201 332.5
t63 408t-63 408.5t-201 333t-354 131.5q-230 0 -368.5 -126t-194.5 -323t-56 -424z" />
    <glyph glyph-name="r" unicode="r" horiz-adv-x="1364" 
d="M324 0v1622q0 315 -17 467h258v-401h8q81 197 216.5 323.5t320.5 126.5q90 0 180 -24v-271q-78 25 -188 25q-191 0 -308 -123.5t-164.5 -312.5t-47.5 -400v-1032h-258z" />
    <glyph glyph-name="s" unicode="s" horiz-adv-x="1593" 
d="M139 49l25 254q260 -131 545 -131q192 0 327 101t135 272q0 164 -119.5 255.5t-373.5 212t-382 237.5t-128 319q0 196 94.5 324t248.5 186.5t337 58.5q101 0 243.5 -22t272.5 -72l-25 -225q-217 98 -462 98q-451 0 -451 -348q0 -127 96.5 -187.5t377 -193.5t417.5 -272.5
t137 -370.5q0 -206 -110.5 -340.5t-278.5 -194t-340 -59.5q-341 0 -586 98z" />
    <glyph glyph-name="t" unicode="t" horiz-adv-x="1364" 
d="M1225 2089v-221h-475v-1352q0 -344 278 -344q108 0 238 49l16 -213q-145 -57 -315 -57q-215 0 -319 88.5t-130 230.5t-26 377v1221h-410v221h410v504l258 90v-594h475z" />
    <glyph glyph-name="u" unicode="u" 
d="M1954 2089v-1597q0 -324 16 -492h-250v373h-8q-85 -186 -235 -304t-441 -118q-368 0 -540 217.5t-172 585.5v1335h258v-1270q0 -647 495 -647q219 0 359 112t200 285t60 365v1155h258z" />
    <glyph glyph-name="v" unicode="v" horiz-adv-x="1819" 
d="M1782 2089l-733 -2089h-304l-708 2089h282l578 -1806h8l606 1806h271z" />
    <glyph glyph-name="w" unicode="w" horiz-adv-x="3187" 
d="M3158 2089l-688 -2089h-311l-570 1806h-8l-569 -1806h-312l-671 2089h282l549 -1806h8l582 1806h311l553 -1806h8l578 1806h258z" />
    <glyph glyph-name="x" unicode="x" horiz-adv-x="1819" 
d="M33 0l733 1106l-664 983h320l496 -778l503 778h295l-647 -983l717 -1106h-320l-548 901l-586 -901h-299z" />
    <glyph glyph-name="y" unicode="y" horiz-adv-x="1819" 
d="M1782 2089l-836 -2400q-90 -261 -214 -417.5t-322 -156.5q-137 0 -279 33l25 221q101 -33 192 -33q151 0 228 108.5t149 346.5l53 184l-741 2114h282l586 -1745l-4 4h8l602 1741h271z" />
    <glyph glyph-name="z" unicode="z" horiz-adv-x="1819" 
d="M131 0v217l1258 1651h-1209v221h1508v-221l-1258 -1647h1258v-221h-1557z" />
    <glyph glyph-name="braceleft" unicode="{" horiz-adv-x="1139" 
d="M1118 3097v-197h-205q-91 0 -135.5 -108t-44.5 -273v-676q0 -179 -61 -305t-140 -191t-143 -81v-9q111 -28 227.5 -172t116.5 -413v-664q0 -168 44.5 -276.5t135.5 -108.5h205v-196h-229q-177 0 -295.5 135t-118.5 364v697q0 239 -80.5 389.5t-238.5 150.5v197
q157 0 238 154t81 399v688q0 153 55 265.5t150.5 171.5t212.5 59h225z" />
    <glyph glyph-name="bar" unicode="|" horiz-adv-x="909" 
d="M315 -49v3121h283v-3121h-283z" />
    <glyph glyph-name="braceright" unicode="}" horiz-adv-x="1139" 
d="M20 -573v196h205q92 0 136.5 108t44.5 273v676q0 261 117.5 405t226.5 172v9q-110 28 -227 172.5t-117 412.5v664q0 168 -44.5 276.5t-136.5 108.5h-205v197h230q178 0 296 -134.5t118 -365.5v-696q0 -236 81 -388.5t238 -152.5v-197q-158 0 -238.5 -155.5t-80.5 -397.5
v-688q0 -153 -55 -265t-151 -171t-212 -59h-226z" />
    <glyph glyph-name="asciitilde" unicode="~" horiz-adv-x="2458" 
d="M2028 1327l147 -209q-195 -373 -512 -373q-98 0 -201.5 37.5t-265.5 114.5q-177 84 -254.5 115.5t-150.5 31.5q-110 0 -189.5 -76.5t-171.5 -222.5l-147 209q195 373 512 373q161 0 467 -147q163 -81 250 -116.5t155 -35.5q110 0 189.5 78t171.5 221z" />
    <glyph glyph-name="sterling" unicode="&#xa3;" horiz-adv-x="1364" 
d="M1024 2859v-2122q0 -226 -70.5 -403.5t-221 -280t-380.5 -102.5q-167 0 -295 49v250q106 -53 267 -53q221 0 319 148t98 384v2130h283z" />
    <glyph glyph-name="section" unicode="&#xa4;" 
d="M111 578l233 225q-221 277 -221 627q0 374 221 618l-233 225l176 185l233 -230q262 217 619 217q353 0 622 -217l221 230l185 -185l-221 -225q104 -122 156 -283.5t52 -334.5q0 -371 -208 -627l221 -225l-185 -177l-221 230q-247 -217 -622 -217q-373 0 -619 217
l-233 -230zM1139 659q209 0 377.5 105.5t262 283.5t93.5 382t-94.5 380.5t-262 283t-376.5 106.5q-204 -9 -372 -116t-264.5 -282t-96.5 -372q0 -216 93.5 -392.5t261 -277.5t378.5 -101z" />
    <glyph glyph-name="paragraph" unicode="&#xa6;" horiz-adv-x="909" 
d="M315 -49v1089h283v-1089h-283zM315 1982v1090h283v-1090h-283z" />
    <glyph glyph-name="germandbls" unicode="&#xa7;" 
d="M1724 2818l-28 -238q-72 39 -216.5 73t-271.5 34q-189 0 -362.5 -88t-173.5 -260q0 -177 140.5 -270t455 -224t474 -265.5t159.5 -371.5q0 -169 -72.5 -279.5t-235.5 -277.5q320 -179 320 -483q0 -240 -141.5 -388.5t-334.5 -210t-356 -61.5q-360 0 -692 115l29 242
q300 -135 663 -135q131 0 257.5 48t209 145.5t82.5 236.5q0 167 -144.5 253t-467 210t-488 262.5t-165.5 384.5q0 149 87.5 274.5t235.5 253.5l37 33l-29 16q-307 181 -307 447q0 209 112 347.5t283.5 202.5t345.5 64q315 0 594 -90zM1282 1565l-356 168l-29 -17
q-77 -43 -163.5 -166.5t-86.5 -263.5q0 -214 266 -328l480 -208l86 86q155 155 155 323q0 158 -85.5 240t-266.5 166z" />
    <glyph glyph-name="registered" unicode="&#xa8;" horiz-adv-x="2048" 
d="M1221 3449h307v-344h-307v344zM520 3449h307v-344h-307v344zM352 2859h1401v-246h-1118v-1020h1061v-245h-1061v-1102h1167v-246h-1450v2859z" />
    <glyph glyph-name="copyright" unicode="&#xa9;" horiz-adv-x="3277" 
d="M442 1430q0 -350 156 -638.5t432.5 -454t611.5 -165.5q332 0 605.5 165.5t430 454t156.5 638.5t-156.5 638t-430 453.5t-605.5 165.5q-335 0 -611.5 -165.5t-432.5 -453.5t-156 -638zM2171 1147h250q-61 -293 -260 -466t-469 -173q-262 0 -463.5 120.5t-311.5 331
t-110 470.5q0 265 105.5 476.5t303 330t463.5 118.5q190 0 347 -71.5t260 -211t131 -335.5h-246q-36 180 -166.5 288.5t-321.5 108.5q-186 0 -320.5 -89t-203.5 -248t-69 -363q0 -193 74 -354.5t211.5 -256t316.5 -94.5q192 0 320.5 115.5t158.5 302.5zM160 1430
q0 399 199 739.5t539.5 539.5t739.5 199q400 0 740.5 -199t539.5 -539.5t199 -739.5q0 -400 -199 -740.5t-539.5 -539.5t-740.5 -199q-399 0 -739.5 199t-539.5 539.5t-199 740.5z" />
    <glyph glyph-name="acute" unicode="&#xab;" 
d="M1188 1942l-545 -840l545 -840h-242l-573 840l573 840h242zM1905 1942l-545 -840l545 -840h-242l-573 840l573 840h242z" />
    <glyph glyph-name="dieresis" unicode="&#xac;" horiz-adv-x="2458" 
d="M188 1307v282h2077v-1122h-283v840h-1794z" />
    <glyph glyph-name="notequal" unicode="&#xad;" horiz-adv-x="909" 
d="M-45 2515v221h999v-221h-999z" />
    <glyph glyph-name="AE" unicode="&#xae;" horiz-adv-x="3277" 
d="M160 1430q0 399 199 739.5t539.5 539.5t739.5 199q400 0 740.5 -199t539.5 -539.5t199 -739.5q0 -400 -199 -740.5t-539.5 -539.5t-740.5 -199q-399 0 -739.5 199t-539.5 539.5t-199 740.5zM442 1430q0 -350 156 -638.5t432.5 -454t611.5 -165.5q332 0 605.5 165.5
t430 454t156.5 638.5t-156.5 638t-430 453.5t-605.5 165.5q-335 0 -611.5 -165.5t-432.5 -453.5t-156 -638zM1073 565v1733h664q594 0 594 -488q0 -135 -55.5 -245.5t-157 -172t-234.5 -61.5l492 -766h-299l-484 766h-237v-766h-283zM1356 2077v-525h336q181 0 268.5 56
t87.5 215q0 136 -100.5 195t-255.5 59h-336z" />
    <glyph glyph-name="Oslash" unicode="&#xaf;" horiz-adv-x="909" 
d="M315 0v2859h283v-2859h-283zM651 3105v344h307v-344h-307zM-49 3105v344h307v-344h-307z" />
    <glyph glyph-name="infinity" unicode="&#xb0;" horiz-adv-x="1638" 
d="M819 2691q-191 0 -314.5 -112t-123.5 -302q0 -114 62 -209t163.5 -149.5t212.5 -54.5t212.5 54.5t163.5 149.5t62 209q0 190 -123 302t-315 112zM819 2888q173 0 321.5 -77.5t237 -218.5t88.5 -315q0 -175 -88.5 -315t-237 -217.5t-321.5 -77.5t-321.5 77.5t-237 217.5
t-88.5 315q0 174 88.5 315t237 218.5t321.5 77.5z" />
    <glyph glyph-name="plusminus" unicode="&#xb1;" horiz-adv-x="2458" 
d="M188 1102v282h897v693h283v-693h897v-282h-897v-692h-283v692h-897zM188 0v283h2077v-283h-2077z" />
    <glyph glyph-name="lessequal" unicode="&#xb2;" horiz-adv-x="909" 
d="M315 0v2859h283v-2859h-283z" />
    <glyph glyph-name="greaterequal" unicode="&#xb3;" horiz-adv-x="909" 
d="M324 0v2089h258v-2089h-258zM582 2990v-344h-258v344h258z" />
    <glyph glyph-name="mu" unicode="&#xb5;" 
d="M324 -860v2949h258v-1270q0 -647 495 -647q219 0 359 112t200 285t60 365v1155h258v-1597q0 -324 16 -492h-250v373h-8q-85 -186 -235 -304t-441 -118q-256 0 -454 119v-930h-258z" />
    <glyph glyph-name="partialdiff" unicode="&#xb6;" horiz-adv-x="2458" 
d="M1049 -442v1753q-242 0 -437 101t-305 275.5t-110 385.5q0 260 112.5 436.5t322 263t498.5 86.5h984v-3301h-259v3080h-548v-3080h-258z" />
    <glyph glyph-name="product" unicode="&#xb8;" horiz-adv-x="2048" 
d="M1221 2781h307v-344h-307v344zM520 2781h307v-344h-307v344zM1724 66q-280 -115 -606 -115q-492 0 -721 295.5t-229 797.5q0 315 110 565t310 389.5t461 139.5q418 0 624.5 -290t206.5 -746v-131h-1429q0 -226 79.5 -407.5t235 -286.5t373.5 -105q136 0 313.5 48
t271.5 108v-262zM1597 1192q0 193 -55 357.5t-175.5 266t-301.5 101.5q-182 0 -322 -106.5t-216 -275t-76 -343.5h1146z" />
    <glyph glyph-name="pi" unicode="&#xb9;" horiz-adv-x="1479" 
d="M94 2245q0 183 69.5 333.5t214.5 240t363 89.5q321 -3 482 -187t161 -476q0 -176 -69 -324.5t-214.5 -239.5t-359.5 -92q-217 0 -362.5 88t-215 237t-69.5 331zM303 2245q0 -212 118.5 -348t319.5 -136q202 0 318.5 135.5t116.5 348.5q0 130 -52 243.5t-150.5 180.5
t-232.5 67q-198 0 -318 -143t-120 -348z" />
    <glyph glyph-name="ordfeminine" unicode="&#xbb;" 
d="M1090 262l544 840l-544 840h241l574 -840l-574 -840h-241zM373 262l545 840l-545 840h241l574 -840l-574 -840h-241z" />
    <glyph glyph-name="ordmasculine" unicode="&#xbc;" horiz-adv-x="909" 
d="M-115 -864v225q77 -25 156 -25q178 0 230.5 101.5t52.5 300.5v2351h258v-2384q0 -279 -104 -434.5t-367 -155.5q-118 0 -226 21zM582 2990v-344h-258v344h258z" />
    <glyph glyph-name="Omega" unicode="&#xbd;" horiz-adv-x="2048" 
d="M246 74l28 291q264 -168 631 -168q181 0 327 63.5t231 195.5t85 326q0 185 -151 304.5t-486 306t-504 353t-169 417.5q0 223 120 393t327.5 261t457.5 91q311 0 561 -94l-45 -258q-192 106 -520 106q-256 0 -437.5 -118.5t-181.5 -372.5q0 -188 144.5 -298.5
t482.5 -293.5t511 -361t173 -460q0 -271 -136 -453.5t-351 -268t-451 -85.5q-366 0 -647 123z" />
    <glyph glyph-name="ae" unicode="&#xbe;" horiz-adv-x="1593" 
d="M139 49l25 254q260 -131 545 -131q192 0 327 101t135 272q0 164 -119.5 255.5t-373.5 212t-382 237.5t-128 319q0 196 94.5 324t248.5 186.5t337 58.5q101 0 243.5 -22t272.5 -72l-25 -225q-217 98 -462 98q-451 0 -451 -348q0 -127 96.5 -187.5t377 -193.5t417.5 -272.5
t137 -370.5q0 -206 -110.5 -340.5t-278.5 -194t-340 -59.5q-341 0 -586 98z" />
    <glyph glyph-name="oslash" unicode="&#xbf;" horiz-adv-x="909" 
d="M324 0v2089h258v-2089h-258zM651 2437v344h307v-344h-307zM-49 2437v344h307v-344h-307z" />
    <glyph glyph-name="questiondown" unicode="&#xc0;" horiz-adv-x="2732" 
d="M1225 2859h319l1135 -2859h-295l-307 766h-1442l-307 -766h-275zM1364 2589l-623 -1577h1241z" />
    <glyph glyph-name="exclamdown" unicode="&#xc1;" 
d="M1839 2859v-246h-1204v-991h475q262 0 469 -93.5t325.5 -276t118.5 -433.5q0 -258 -119.5 -443.5t-328 -280.5t-465.5 -95h-758v2859h1487zM635 246h459q284 0 465.5 146.5t181.5 418.5q0 189 -82.5 315.5t-227.5 188t-337 61.5h-459v-1130z" />
    <glyph glyph-name="logicalnot" unicode="&#xc2;" 
d="M348 2859h680q185 0 346 -34.5t287.5 -115t199 -218.5t72.5 -337q0 -258 -131 -429t-389 -222v-8q184 -34 320 -122.5t211 -231t75 -326.5q0 -435 -303 -625t-798 -190h-570v2859zM631 246h295q344 0 577.5 123t233.5 434q0 237 -119.5 361t-303 162t-433.5 38h-250
v-1118zM631 1610h323q697 0 697 532q0 471 -623 471h-397v-1003z" />
    <glyph glyph-name="radical" unicode="&#xc3;" horiz-adv-x="1819" 
d="M352 2859h1426v-246h-1143v-2613h-283v2859z" />
    <glyph glyph-name="florin" unicode="&#xc4;" 
d="M49 246h8q184 24 268.5 168.5t84.5 359.5v2085h1519v-2613h185v-738h-283v492h-1499v-492h-283v738zM688 762q0 -334 -172 -516h1131v2367h-959v-1851z" />
    <glyph glyph-name="approxequal" unicode="&#xc5;" horiz-adv-x="2048" 
d="M360 2859h1401v-246h-1118v-1020h1061v-245h-1061v-1102h1167v-246h-1450v2859z" />
    <glyph glyph-name="Delta" unicode="&#xc6;" horiz-adv-x="3412" 
d="M1565 2859h282v-1282l1069 1282h357l-1147 -1348l1265 -1511h-376l-1168 1430v-1430h-282v1430l-1168 -1430h-377l1266 1511l-1147 1348h357l1069 -1282v1282z" />
    <glyph glyph-name="guillemotleft" unicode="&#xc7;" horiz-adv-x="2126" 
d="M483 1610h365q164 0 316.5 58.5t247.5 181t95 304.5q0 257 -183 382.5t-480 125.5q-323 0 -631 -147l-25 262q338 131 672 131q267 0 479 -89.5t333.5 -261t121.5 -403.5t-125 -401.5t-362 -249.5v-8q179 -34 312 -124.5t209.5 -239.5t76.5 -345q0 -253 -142 -443.5
t-383.5 -291t-527.5 -100.5q-382 0 -700 127l32 266q296 -143 672 -143q197 0 368.5 62.5t276.5 199t105 344.5q0 306 -226.5 431.5t-527.5 125.5h-369v246z" />
    <glyph glyph-name="guillemotright" unicode="&#xc8;" horiz-adv-x="2806" 
d="M2454 0h-283v2466h-8l-1430 -2466h-381v2859h283v-2515h8l1454 2515h357v-2859z" />
    <glyph glyph-name="ellipsis" unicode="&#xc9;" horiz-adv-x="2806" 
d="M1020 3449q64 -225 381 -225t381 225h123q-28 -208 -161.5 -339.5t-342.5 -131.5t-341.5 130.5t-162.5 340.5h123zM2454 0h-283v2466h-8l-1430 -2466h-381v2859h283v-2515h8l1454 2515h357v-2859z" />
    <glyph glyph-name="nonbreakingspace" unicode="&#xca;" horiz-adv-x="2429" 
d="M348 2859h283v-1282l1286 1282h369l-1385 -1348l1503 -1511h-389l-1384 1430v-1430h-283v2859z" />
    <glyph glyph-name="Agrave" unicode="&#xcb;" 
d="M410 2859h1519v-2863h-282v2617h-959v-1876q0 -351 -166.5 -568.5t-505.5 -217.5l-24 266q220 0 319 148.5t99 384.5v2109z" />
    <glyph glyph-name="Atilde" unicode="&#xcc;" horiz-adv-x="3641" 
d="M348 2859h438l1045 -2515l1048 2515h406v-2859h-283v2576h-8l-1040 -2576h-242l-1073 2576h-8v-2576h-283v2859z" />
    <glyph glyph-name="Otilde" unicode="&#xcd;" horiz-adv-x="2732" 
d="M360 0v2859h283v-1266h1446v1266h283v-2859h-283v1348h-1446v-1348h-283z" />
    <glyph glyph-name="OE" unicode="&#xce;" horiz-adv-x="2957" 
d="M1479 2908q312 0 551.5 -118.5t395 -323.5t233 -472.5t77.5 -563.5q-3 -331 -85 -604t-241 -468.5t-394 -301t-537 -105.5t-537 105.5t-395 302.5t-241.5 468.5t-84.5 602.5q0 399 139 737t423.5 539.5t695.5 201.5zM504 1430q0 -319 107.5 -601t328 -457t539.5 -175
q318 0 539 175.5t328.5 459t107.5 598.5t-107.5 598.5t-328.5 458.5t-539 175q-319 0 -539.5 -174.5t-328 -456.5t-107.5 -601z" />
    <glyph glyph-name="oe" unicode="&#xcf;" horiz-adv-x="2732" 
d="M360 2859h2012v-2859h-283v2613h-1446v-2613h-283v2859z" />
    <glyph glyph-name="emdash" unicode="&#xd0;" 
d="M360 2859h787q268 0 469 -91t308.5 -273t107.5 -447q0 -257 -119.5 -441t-328 -277t-466.5 -93h-475v-1237h-283v2859zM643 1483h279q257 0 431 37.5t285 161.5t111 366q0 271 -147 418t-418 147h-541v-1130z" />
    <glyph glyph-name="endash" unicode="&#xd1;" horiz-adv-x="2503" 
d="M2302 2540q-234 122 -639 122q-359 0 -622.5 -158t-400 -438t-136.5 -636q0 -362 133.5 -641.5t395.5 -435.5t630 -156q435 0 639 122l16 -245q-104 -64 -294.5 -93.5t-360.5 -29.5q-334 0 -602 105.5t-456 302t-286 470t-98 601.5q0 323 100.5 596t289.5 470.5
t457 304.5t595 107q160 0 359 -27t296 -79z" />
    <glyph glyph-name="quotedblleft" unicode="&#xd2;" horiz-adv-x="2048" 
d="M885 2613h-844v246h1970v-246h-844v-2613h-282v2613z" />
    <glyph glyph-name="quotedblright" unicode="&#xd3;" horiz-adv-x="2503" 
d="M1171 860l-1122 1999h328l950 -1700l803 1700h324l-1405 -2859h-308z" />
    <glyph glyph-name="quoteleft" unicode="&#xd4;" horiz-adv-x="3412" 
d="M1565 2621v238h282v-238q269 0 511.5 -76.5t427 -226.5t291 -373t106.5 -511t-106 -510.5t-292.5 -374t-427.5 -227.5t-510 -76v-246h-282v246q-267 0 -508 76t-428.5 227.5t-293.5 376t-106 508.5t106.5 509t292 375t427.5 226.5t510 76.5zM1565 2400q-215 0 -405 -63
t-334 -186.5t-227 -306t-83 -410.5t82.5 -410t227 -305.5t334 -187.5t405.5 -64v1933zM1847 2400v-1933q215 0 404.5 63.5t335 187.5t227.5 306t82 410t-82 410.5t-227.5 306t-334.5 186.5t-405 63z" />
    <glyph glyph-name="quoteright" unicode="&#xd5;" horiz-adv-x="2503" 
d="M1094 1503l-959 1356h332l803 -1155l811 1155h315l-962 -1356l1040 -1503h-344l-873 1303l-905 -1303h-323z" />
    <glyph glyph-name="divide" unicode="&#xd6;" horiz-adv-x="2732" 
d="M2261 -4h-1913v2863h283v-2613h1446v2613h282v-2613h185v-738h-283v488z" />
    <glyph glyph-name="lozenge" unicode="&#xd7;" horiz-adv-x="2503" 
d="M2154 0h-282v1343q-92 -58 -312.5 -145.5t-494.5 -87.5q-235 1 -408.5 89t-263.5 253.5t-90 390.5v1016h283v-971q0 -506 544 -512q231 0 440 83t302 138v1262h282v-2859z" />
    <glyph glyph-name="ydieresis" unicode="&#xd8;" horiz-adv-x="3412" 
d="M1565 2859h282v-2609h934v2609h283v-2859h-2716v2859h283v-2609h934v2609z" />
    <glyph glyph-name="Ydieresis" unicode="&#xd9;" horiz-adv-x="3412" 
d="M2966 0h-2618v2859h283v-2613h934v2613h282v-2613h934v2613h283v-2613h184v-733h-282v487z" />
    <glyph glyph-name="fraction" unicode="&#xda;" horiz-adv-x="2421" 
d="M500 2613h-459v246h741v-1237h475q261 0 469 -93.5t326.5 -276t118.5 -433.5q0 -258 -119.5 -443t-328.5 -280.5t-466 -95.5h-757v2613zM782 246h459q283 0 465 146t182 419q0 189 -82.5 316t-227 188t-337.5 61h-459v-1130z" />
    <glyph glyph-name="currency" unicode="&#xdb;" horiz-adv-x="3187" 
d="M2552 2859h282v-2859h-282v2859zM352 2859h283v-1237h475q262 0 469 -93.5t325.5 -276t118.5 -433.5q0 -258 -119.5 -443.5t-328 -280.5t-465.5 -95h-758v2859zM635 246h459q284 0 465.5 146.5t181.5 418.5q0 189 -82.5 315.5t-227.5 188t-337 61.5h-459v-1130z" />
    <glyph glyph-name="guilsinglleft" unicode="&#xdc;" 
d="M352 2859h283v-1237h475q262 0 469 -93.5t325.5 -276t118.5 -433.5q0 -258 -119.5 -443.5t-328 -280.5t-465.5 -95h-758v2859zM635 246h459q284 0 465.5 146.5t181.5 418.5q0 189 -82.5 315.5t-227.5 188t-337 61.5h-459v-1130z" />
    <glyph glyph-name="guilsinglright" unicode="&#xdd;" horiz-adv-x="2503" 
d="M1991 1593q-32 315 -175.5 556.5t-393 377t-582.5 135.5q-405 0 -639 -122l-17 262q98 52 297 79t359 27q328 0 594.5 -106.5t456 -304.5t290 -471t100.5 -596q0 -330 -97.5 -602t-285 -469t-456 -302.5t-602.5 -105.5q-170 0 -360 29.5t-296 93.5l17 245
q204 -122 639 -122q354 0 607.5 144.5t390 405t153.5 601.5h-1524v245h1524z" />
    <glyph glyph-name="fi" unicode="&#xde;" horiz-adv-x="3641" 
d="M1253 1430q0 -317 105 -599.5t320 -458t522 -175.5q306 0 521 175.5t320 458t105 599.5t-105.5 599.5t-320 457.5t-520.5 175q-307 0 -521.5 -175t-320 -457.5t-105.5 -599.5zM979 1352h-336v-1352h-283v2859h283v-1262h344q22 274 107 509t238 417t371 283.5t497 101.5
q301 0 533 -118.5t384 -324.5t227.5 -471t75.5 -564q-5 -441 -146 -776t-414.5 -519t-659.5 -184q-376 0 -646.5 173.5t-416.5 491.5t-158 736z" />
    <glyph glyph-name="fl" unicode="&#xdf;" 
d="M1917 0h-283v1348h-315q-159 0 -243.5 -20.5t-159.5 -101.5t-154 -259l-332 -967h-311l405 1106q61 129 96.5 187.5t100.5 100.5t172 56v8q-177 23 -321.5 109.5t-229 229t-84.5 321.5q0 379 221 560t619 181h819v-2859zM1634 2613h-372q-174 0 -295 -13.5t-219 -62.5
t-152.5 -150.5t-54.5 -268.5q0 -186 103.5 -304.5t266 -169.5t342.5 -51h381v1020z" />
    <glyph glyph-name="daggerdbl" unicode="&#xe0;" horiz-adv-x="2048" 
d="M1495 336h-8q-81 -179 -271 -282t-393 -103q-271 0 -424.5 99.5t-208.5 232.5t-55 258q0 247 118 399t305.5 223t394 91t468.5 20h49v106q0 275 -109.5 406t-365.5 131q-346 0 -614 -172v250q122 59 299.5 101t314.5 42q258 0 420 -80.5t238 -252t76 -445.5v-922
q0 -295 20 -438h-254v336zM1470 1053h-73q-438 0 -708.5 -98t-270.5 -406q0 -195 121 -286t313 -91q394 0 506 229.5t112 524.5v127z" />
    <glyph glyph-name="periodcentered" unicode="&#xe1;" 
d="M1167 172q210 0 360.5 115t227 313t76.5 444t-76.5 444.5t-227 313.5t-360.5 115t-359.5 -114.5t-226.5 -313t-77 -445.5q0 -245 77 -444t226.5 -313.5t359.5 -114.5zM696 2613q94 83 235 140t359.5 122.5t335 115t160.5 118.5l168 -168q-66 -99 -196 -161t-361 -131
t-358.5 -116t-219.5 -129q-269 -240 -327 -671h8q95 189 282 297t385 108q312 0 526.5 -150t317.5 -399t103 -545t-103 -544.5t-317.5 -398.5t-526.5 -150t-526 150t-317 398.5t-103 544.5q0 282 23.5 517t77.5 427.5t146.5 350t227.5 274.5z" />
    <glyph glyph-name="quotesinglbase" unicode="&#xe2;" horiz-adv-x="2048" 
d="M324 2089h737q304 0 504 -127.5t200 -409.5q0 -330 -323 -450v-4q192 -48 305 -178.5t113 -313.5q0 -323 -239.5 -464.5t-621.5 -141.5h-675v2089zM991 1196q512 0 512 360q0 316 -454 316h-467v-676h409zM991 217q594 0 594 377q0 161 -85 246t-222 112t-324 27h-372
v-762h409z" />
    <glyph glyph-name="quotedblbase" unicode="&#xe3;" horiz-adv-x="1593" 
d="M324 2089h1228v-217h-970v-1872h-258v2089z" />
    <glyph glyph-name="perthousand" unicode="&#xe4;" horiz-adv-x="2048" 
d="M135 217h4q254 34 254 356v1516h1331v-1872h164v-709h-258v492h-1257v-492h-258v709h20zM545 217h921v1655h-819v-1307q0 -215 -102 -348z" />
    <glyph glyph-name="Acircumflex" unicode="&#xe5;" horiz-adv-x="2048" 
d="M1724 66q-280 -115 -606 -115q-492 0 -721 295.5t-229 797.5q0 315 110 565t310 389.5t461 139.5q418 0 624.5 -290t206.5 -746v-131h-1429q0 -226 79.5 -407.5t235 -286.5t373.5 -105q136 0 313.5 48t271.5 108v-262zM1597 1192q0 193 -55 357.5t-175.5 266
t-301.5 101.5q-182 0 -322 -106.5t-216 -275t-76 -343.5h1146z" />
    <glyph glyph-name="Ecircumflex" unicode="&#xe6;" horiz-adv-x="2654" 
d="M1196 0v1008l-840 -1008h-356l942 1106l-819 983h311l762 -922v922h258v-922l762 922h311l-819 -983l942 -1106h-356l-840 1008v-1008h-258z" />
    <glyph glyph-name="Aacute" unicode="&#xe7;" horiz-adv-x="1745" 
d="M365 1196h352q236 0 363.5 94t127.5 279q0 176 -136 264t-359 88q-320 0 -541 -119l-29 238q283 98 582 98q220 0 387.5 -65.5t260.5 -191.5t93 -304q0 -334 -331 -475v-4q421 -115 421 -525q0 -191 -106.5 -332.5t-297 -215.5t-431.5 -74q-330 0 -590 94l-16 4l37 238
l24 -13q228 -102 549 -102q165 0 290 43t196 136t71 235q0 393 -561 393h-356v217z" />
    <glyph glyph-name="Edieresis" unicode="&#xe8;" 
d="M1954 0h-258v1806l-1000 -1806h-372v2089h258v-1798l991 1798h381v-2089z" />
    <glyph glyph-name="Egrave" unicode="&#xe9;" 
d="M1954 0h-258v1806l-1000 -1806h-372v2089h258v-1798l991 1798h381v-2089zM762 2859q64 -225 381 -225t381 225h123q-28 -208 -161.5 -339.5t-342.5 -131.5t-341.5 130.5t-162.5 340.5h123z" />
    <glyph glyph-name="Iacute" unicode="&#xea;" horiz-adv-x="1970" 
d="M324 2089h258v-922l942 922h323l-1011 -983l1134 -1106h-364l-1024 1008v-1008h-258v2089z" />
    <glyph glyph-name="Icircumflex" unicode="&#xeb;" horiz-adv-x="2048" 
d="M393 2089h1331v-2089h-258v1872h-819v-1335q0 -257 -134.5 -421.5t-401.5 -164.5h-21l-24 233h24q296 0 303 361v1544z" />
    <glyph glyph-name="Idieresis" unicode="&#xec;" horiz-adv-x="2998" 
d="M324 2089h372l807 -1770l811 1770h348v-2089h-258v1786l-790 -1786h-217l-815 1786v-1786h-258v2089z" />
    <glyph glyph-name="Igrave" unicode="&#xed;" 
d="M1954 0h-258v967h-1114v-967h-258v2089h258v-901h1114v901h258v-2089z" />
    <glyph glyph-name="Oacute" unicode="&#xee;" 
d="M1139 2138q321 0 542 -149.5t327 -399t106 -545.5q0 -216 -59 -415t-178.5 -350.5t-306 -239.5t-431.5 -88q-321 0 -542 149.5t-327 398.5t-106 545t106 545.5t327 399t542 149.5zM1139 172q218 0 374.5 115t237 314.5t80.5 442.5q0 244 -80.5 443.5t-237 314.5
t-374.5 115q-217 0 -374.5 -115t-238 -314.5t-80.5 -443.5q0 -243 80.5 -442.5t238 -314.5t374.5 -115z" />
    <glyph glyph-name="Ocircumflex" unicode="&#xef;" 
d="M1954 0h-258v1868h-1114v-1868h-258v2089h1630v-2089z" />
    <glyph glyph-name="apple" unicode="&#xf0;" 
d="M299 2089h258l-16 -381h8q65 113 129.5 196t202 158.5t336.5 75.5q295 0 488 -137.5t282.5 -383t89.5 -573.5q0 -313 -97 -561.5t-291 -390t-472 -141.5q-241 0 -398 100t-254 305h-8v-1216h-258v2949zM1176 1917q-216 0 -354.5 -131.5t-201.5 -333t-63 -408.5t63 -408
t201.5 -332.5t354.5 -131.5q231 0 369 127t193.5 322.5t55.5 422.5t-55.5 423.5t-193.5 323t-369 126.5z" />
    <glyph glyph-name="Ograve" unicode="&#xf1;" horiz-adv-x="1819" 
d="M1679 1810q-240 107 -446 107q-370 0 -578.5 -242t-208.5 -631q0 -237 92.5 -437.5t265.5 -317.5t400 -117q215 0 471 94l25 -241q-210 -74 -537 -74q-244 0 -432 86t-314.5 238t-189.5 351t-63 418q0 316 129 566.5t364.5 389t538.5 138.5q261 0 504 -82z" />
    <glyph glyph-name="Uacute" unicode="&#xf2;" horiz-adv-x="1671" 
d="M41 1872v217h1593v-217h-667v-1872h-258v1872h-668z" />
    <glyph glyph-name="Ucircumflex" unicode="&#xf3;" horiz-adv-x="1819" 
d="M987 -311q-59 -182 -122.5 -304t-163.5 -196t-246 -74q-129 0 -271 33l21 221q101 -33 192 -33q135 0 207 102.5t162 352.5l61 168l-794 2130h295l618 -1741h8l549 1741h279z" />
    <glyph glyph-name="Ugrave" unicode="&#xf4;" horiz-adv-x="3338" 
d="M1540 -860v1241h-8q-86 -223 -226.5 -326.5t-359.5 -103.5q-250 0 -424.5 141t-262 388.5t-87.5 563.5q0 329 80 574t254 382.5t440 137.5q257 0 392.5 -138.5t193.5 -291.5h8v1364h258v-1364h8q62 157 195.5 293.5t390.5 136.5q266 0 440 -137.5t254 -382.5t80 -574
q0 -316 -87.5 -563.5t-262 -388.5t-424.5 -141q-218 0 -358 103t-228 327h-8v-1241h-258zM995 1917q-201 0 -322 -126.5t-169.5 -322.5t-48.5 -424t48.5 -423.5t169.5 -322t322 -126.5q190 0 312.5 131t177.5 330t55 411q0 151 -29 304t-94.5 283t-171.5 208t-250 78z
M2343 1917q-144 0 -250.5 -79t-170.5 -207.5t-94 -282t-30 -304.5q0 -212 55 -411t177.5 -330t312.5 -131q201 0 322 126.5t170 322t49 423.5t-49 424t-170 322.5t-322 126.5z" />
    <glyph glyph-name="dotlessi" unicode="&#xf5;" horiz-adv-x="1819" 
d="M766 1106l-664 983h320l496 -778l503 778h295l-647 -983l717 -1106h-320l-548 901l-586 -901h-299z" />
    <glyph glyph-name="circumflex" unicode="&#xf6;" 
d="M1860 0h-1536v2089h258v-1868h1114v1868h258v-1868h164v-713h-258v492z" />
    <glyph glyph-name="tilde" unicode="&#xf7;" horiz-adv-x="2048" 
d="M1716 0h-258v963q-75 -40 -243 -100t-355 -60q-185 0 -328.5 65.5t-221 189.5t-77.5 290v741h259v-709q0 -344 421 -344q167 0 321.5 60t223.5 100v893h258v-2089z" />
    <glyph glyph-name="macron" unicode="&#xf8;" horiz-adv-x="2884" 
d="M1311 2089h258v-1868h729v1868h258v-2089h-2232v2089h258v-1868h729v1868z" />
    <glyph glyph-name="breve" unicode="&#xf9;" horiz-adv-x="2884" 
d="M2462 0h-2138v2089h258v-1868h729v1868h258v-1868h729v1868h258v-1868h164v-713h-258v492z" />
    <glyph glyph-name="dotaccent" unicode="&#xfa;" horiz-adv-x="1970" 
d="M41 1872v217h614v-885h467q205 0 368 -70t258 -205.5t95 -322.5q0 -189 -95.5 -327t-259 -208.5t-366.5 -70.5h-725v1872h-356zM1110 217q137 0 245 43t169 130.5t61 211.5q0 378 -475 385h-455v-770h455z" />
    <glyph glyph-name="ring" unicode="&#xfb;" horiz-adv-x="2732" 
d="M2150 2089h258v-2089h-258v2089zM324 2089h258v-885h467q204 0 368.5 -70t260.5 -206t96 -322q0 -190 -96.5 -327.5t-261 -208t-367.5 -70.5h-725v2089zM1036 217q139 0 248 43t170.5 130.5t61.5 211.5q0 193 -129 289t-351 96h-454v-770h454z" />
    <glyph glyph-name="cedilla" unicode="&#xfc;" horiz-adv-x="1896" 
d="M324 2089h258v-885h467q203 0 366.5 -70t258.5 -205.5t95 -322.5q0 -144 -55 -257.5t-154 -191t-229.5 -117.5t-281.5 -40h-725v2089zM1036 217q138 0 246 43t168.5 129.5t60.5 212.5q0 193 -127.5 289t-347.5 96h-454v-770h454z" />
    <glyph glyph-name="hungarumlaut" unicode="&#xfd;" horiz-adv-x="1819" 
d="M1364 1192q-37 330 -241.5 527.5t-536.5 197.5q-205 0 -447 -107l-20 246q243 82 504 82q303 0 538.5 -138.5t364.5 -389t129 -566.5q0 -224 -63 -420.5t-189.5 -348.5t-314.5 -238t-433 -86t-528 98l16 217q257 -94 471 -94q217 0 383 105.5t261 288t110 405.5h-991v221
h987z" />
    <glyph glyph-name="ogonek" unicode="&#xfe;" horiz-adv-x="2957" 
d="M1847 172q210 0 360.5 115.5t227 313t76.5 443.5t-76.5 444t-227 313.5t-360.5 115.5t-359.5 -114.5t-226.5 -313t-77 -445.5q0 -245 77 -444t226.5 -313.5t359.5 -114.5zM901 971h-319v-971h-258v2089h258v-897h327q24 265 133.5 478.5t313.5 340.5t491 127
q312 0 526 -149.5t317 -399t103 -545.5t-103 -545t-317 -398.5t-526 -149.5q-298 0 -508 138t-318 370t-120 512z" />
    <glyph glyph-name="caron" unicode="&#xff;" horiz-adv-x="2048" 
d="M1724 0h-258v967h-368q-177 -3 -246.5 -41t-159.5 -221l-258 -705h-291l324 819h4q77 175 209 238v4q-182 49 -300 175t-118 300q0 281 179.5 417t488.5 136h794v-2089zM1057 1872q-275 0 -406 -60.5t-131 -275.5q0 -181 156 -266.5t373 -85.5h417v688h-409z" />
    <glyph glyph-name="ntilde" unicode="&#x2013;" horiz-adv-x="2048" 
d="M0 991v221h2048v-221h-2048z" />
    <glyph glyph-name="oacute" unicode="&#x2014;" horiz-adv-x="4096" 
d="M0 991v221h4096v-221h-4096z" />
    <glyph glyph-name="edieresis" unicode="&#x2018;" horiz-adv-x="1139" 
d="M844 2859l-242 -893h-307l315 893h234z" />
    <glyph glyph-name="iacute" unicode="&#x2019;" horiz-adv-x="1139" 
d="M295 1966l242 893h307l-316 -893h-233z" />
    <glyph glyph-name="Ccedilla" unicode="&#x201a;" horiz-adv-x="1139" 
d="M295 -549l242 893h307l-316 -893h-233z" />
    <glyph glyph-name="igrave" unicode="&#x201c;" 
d="M1053 2859l-242 -893h-307l315 893h234zM1774 2859l-242 -893h-307l315 893h234z" />
    <glyph glyph-name="icircumflex" unicode="&#x201d;" 
d="M1225 1966l241 893h308l-316 -893h-233zM504 1966l241 893h308l-316 -893h-233z" />
    <glyph glyph-name="Ntilde" unicode="&#x201e;" 
d="M504 -549l241 893h308l-312 -893h-237zM1225 -549l241 893h308l-316 -893h-233z" />
    <glyph glyph-name="Udieresis" unicode="&#x2020;" 
d="M1008 0v1868h-717v221h717v770h258v-770h721v-221h-721v-1868h-258z" />
    <glyph glyph-name="aacute" unicode="&#x2021;" 
d="M291 770v221h717v877h-717v221h717v770h258v-770h721v-221h-721v-877h721v-221h-721v-770h-258v770h-717z" />
    <glyph glyph-name="idieresis" unicode="&#x2022;" horiz-adv-x="2048" 
d="M311 1430q0 193 96 358t260.5 261.5t356.5 96.5q147 0 276 -55t229.5 -155t156 -229.5t55.5 -276.5q0 -191 -97 -356t-262 -261t-358 -96q-194 0 -357.5 96t-259.5 260t-96 357z" />
    <glyph glyph-name="Odieresis" unicode="&#x2026;" horiz-adv-x="4096" 
d="M520 0v344h332v-344h-332zM1884 0v344h332v-344h-332zM3248 0v344h332v-344h-332z" />
    <glyph glyph-name="acircumflex" unicode="&#x2030;" horiz-adv-x="4096" 
d="M172 2163q0 331 118.5 528t422.5 197q303 0 421.5 -196t118.5 -529t-118.5 -529t-421.5 -196q-541 0 -541 725zM430 2163q0 -149 14 -257t76.5 -190t192.5 -82q129 0 191.5 82t76.5 190t14 257q0 234 -48.5 381t-233.5 147q-184 0 -233.5 -147t-49.5 -381zM1556 696
q0 725 541 725t541 -725t-541 -725t-541 725zM1815 696q0 -149 14 -256t76.5 -189.5t191.5 -82.5q130 0 192.5 82.5t76.5 189.5t14 256t-14 257t-76.5 190t-192.5 82q-129 0 -191.5 -82t-76.5 -190t-14 -257zM2843 696q0 725 540 725q541 0 541 -725t-541 -725
q-540 0 -540 725zM3101 696q0 -149 14 -256t76.5 -189.5t191.5 -82.5q130 0 192.5 82.5t76.5 189.5t14 256t-14 257t-76.5 190t-192.5 82q-129 0 -191.5 -82t-76.5 -190t-14 -257zM442 -90l1692 3039h238l-1692 -3039h-238z" />
    <glyph glyph-name="atilde" unicode="&#x2039;" horiz-adv-x="1139" 
d="M975 1942l-545 -840l545 -840h-242l-573 840l573 840h242z" />
    <glyph glyph-name="otilde" unicode="&#x203a;" horiz-adv-x="1139" 
d="M164 262l545 840l-545 840h242l573 -840l-573 -840h-242z" />
    <glyph glyph-name="ocircumflex" unicode="&#x2122;" horiz-adv-x="4055" 
d="M799 1163v1499h-537v197h1331v-197h-536v-1499h-258zM1958 1163v1696h418l499 -1307l500 1307h418v-1696h-258v1475h-8l-566 -1475h-176l-561 1475h-8v-1475h-258z" />
    <glyph glyph-name="summation" unicode="&#x2219;" horiz-adv-x="1139" 
d="M377 1274q0 90 59.5 143t136.5 53q75 0 134 -52.5t59 -143.5q0 -90 -59.5 -141.5t-133.5 -51.5q-76 0 -136 51.5t-60 141.5z" />
    </font>
</defs>
</svg>
