<svg
 xmlns="http://www.w3.org/2000/svg"
 xmlns:xlink="http://www.w3.org/1999/xlink"
 width="164px" height="148px">
<defs>
<filter id="Filter_0">
    <feFlood flood-color="rgb(255, 255, 255)" flood-opacity="1" result="floodOut" />
    <feComposite operator="atop" in="floodOut" in2="SourceGraphic" result="compOut" />
    <feBlend mode="normal" in="compOut" in2="SourceGraphic" />
</filter>

</defs>
<g filter="url(#Filter_0)">
<path fill-rule="evenodd"  stroke-width="1px" stroke="rgb(255, 255, 255)" fill="rgb(0, 0, 0)"
 d="M160.460,48.338 C160.479,48.230 160.489,48.126 160.494,48.016 C160.499,47.888 160.497,47.766 160.486,47.638 C160.476,47.528 160.460,47.423 160.434,47.317 C160.405,47.191 160.366,47.072 160.319,46.951 C160.295,46.889 160.290,46.823 160.261,46.763 C160.240,46.719 160.204,46.685 160.180,46.640 C160.157,46.596 160.146,46.549 160.120,46.504 L133.948,4.727 C133.828,4.536 133.686,4.364 133.527,4.213 C133.524,4.210 133.522,4.210 133.519,4.207 C133.294,3.995 133.027,3.844 132.742,3.724 C132.705,3.708 132.682,3.677 132.642,3.661 C132.613,3.651 132.582,3.656 132.553,3.648 C132.289,3.559 132.017,3.500 131.731,3.500 L32.279,3.500 C31.996,3.500 31.727,3.559 31.468,3.646 C31.439,3.654 31.410,3.648 31.384,3.659 C31.345,3.672 31.321,3.703 31.284,3.719 C31.012,3.831 30.756,3.977 30.533,4.176 C30.520,4.189 30.502,4.197 30.489,4.207 C30.326,4.359 30.183,4.534 30.062,4.724 L3.890,46.502 C3.864,46.544 3.854,46.594 3.830,46.637 C3.807,46.682 3.770,46.716 3.749,46.760 C3.720,46.820 3.715,46.886 3.689,46.949 C3.642,47.069 3.602,47.188 3.574,47.314 C3.550,47.421 3.532,47.528 3.521,47.638 C3.503,47.766 3.500,47.891 3.506,48.016 C3.511,48.126 3.521,48.230 3.540,48.338 C3.561,48.463 3.595,48.585 3.637,48.708 C3.671,48.810 3.707,48.909 3.754,49.009 C3.778,49.056 3.786,49.108 3.812,49.155 C3.854,49.230 3.917,49.288 3.964,49.358 C4.000,49.413 4.021,49.474 4.066,49.526 L79.935,143.489 C79.940,143.497 79.945,143.502 79.951,143.508 L79.964,143.525 C79.972,143.536 79.985,143.539 79.993,143.549 C80.207,143.808 80.474,144.003 80.765,144.160 C80.843,144.202 80.916,144.238 80.998,144.272 C81.314,144.406 81.649,144.499 82.000,144.499 C82.298,144.499 82.599,144.447 82.898,144.340 C82.942,144.325 82.971,144.288 83.015,144.270 C83.149,144.215 83.254,144.126 83.374,144.051 C83.573,143.925 83.759,143.795 83.913,143.625 C83.950,143.586 84.005,143.567 84.039,143.525 L159.937,49.526 C159.979,49.474 159.999,49.411 160.039,49.358 C160.089,49.288 160.149,49.230 160.191,49.155 C160.217,49.108 160.225,49.056 160.248,49.009 C160.295,48.909 160.332,48.813 160.366,48.708 C160.403,48.585 160.439,48.465 160.460,48.338 ZM87.501,8.724 L127.960,8.724 L115.241,42.786 L87.501,8.724 ZM110.525,45.280 L53.478,45.280 L82.000,10.257 L110.525,45.280 ZM48.576,43.014 L36.016,8.724 L76.501,8.724 L48.576,43.014 ZM112.359,50.502 L81.542,133.029 L51.316,50.502 L112.359,50.502 ZM132.323,11.996 L153.174,45.282 L119.894,45.282 L132.323,11.996 ZM31.653,12.030 L43.831,45.280 L10.826,45.280 L31.653,12.030 ZM45.744,50.502 L74.112,127.958 L11.572,50.502 L45.744,50.502 ZM88.273,129.958 L117.944,50.502 L152.428,50.502 L88.273,129.958 Z"/>
</g>
</svg>
