<svg
 xmlns="http://www.w3.org/2000/svg"
 xmlns:xlink="http://www.w3.org/1999/xlink"
 width="169px" height="142px">
<defs>
<filter id="Filter_0">
    <feFlood flood-color="rgb(255, 255, 255)" flood-opacity="1" result="floodOut" />
    <feComposite operator="atop" in="floodOut" in2="SourceGraphic" result="compOut" />
    <feBlend mode="normal" in="compOut" in2="SourceGraphic" />
</filter>

</defs>
<g filter="url(#Filter_0)">
<path fill-rule="evenodd"  fill="rgb(0, 0, 0)"
 d="M106.544,4.206 C106.544,1.881 104.660,-0.004 102.334,-0.004 L57.733,-0.004 C55.407,-0.004 53.522,1.881 53.522,4.206 L53.522,30.978 C53.522,33.304 55.407,35.188 57.733,35.188 L98.124,35.188 L98.124,47.082 L57.733,87.490 L47.330,77.081 C46.448,76.199 45.214,75.755 43.978,75.864 C42.736,75.974 41.606,76.631 40.895,77.655 L0.753,135.389 C-0.142,136.675 -0.247,138.353 0.479,139.743 C1.205,141.132 2.643,142.003 4.210,142.003 L164.779,142.003 C164.783,142.003 164.788,142.003 164.790,142.003 C167.116,142.003 169.000,140.118 169.000,137.792 C169.000,136.791 168.651,135.872 168.068,135.149 L106.544,47.496 L106.544,4.206 ZM61.943,26.767 L61.943,8.417 L98.124,8.417 L98.124,26.767 L61.943,26.767 ZM12.265,133.582 L44.934,86.596 L54.755,96.423 C55.544,97.212 56.616,97.656 57.733,97.656 C58.849,97.656 59.920,97.212 60.710,96.423 L101.768,55.348 L156.679,133.583 L12.265,133.583 L12.265,133.582 Z"/>
</g>
</svg>
