<svg
 xmlns="http://www.w3.org/2000/svg"
 xmlns:xlink="http://www.w3.org/1999/xlink"
 width="161px" height="151px">
<defs>
<filter id="Filter_0">
    <feFlood flood-color="rgb(239, 239, 239)" flood-opacity="1" result="floodOut" />
    <feComposite operator="atop" in="floodOut" in2="SourceGraphic" result="compOut" />
    <feBlend mode="normal" in="compOut" in2="SourceGraphic" />
</filter>

</defs>
<g filter="url(#Filter_0)">
<path fill-rule="evenodd"  stroke-width="3px" stroke="rgb(71, 110, 148)" fill="rgb(0, 0, 0)"
 d="M155.209,16.223 C152.173,13.192 147.261,13.192 144.225,16.223 L130.956,29.473 C117.717,13.627 97.825,3.512 75.589,3.512 C35.834,3.512 3.500,35.811 3.500,75.512 C3.500,115.211 35.834,147.511 75.589,147.511 C115.339,147.511 147.686,115.211 147.686,75.512 C147.686,63.689 144.767,52.551 139.693,42.702 L155.203,27.197 C158.244,24.166 158.244,19.250 155.209,16.223 ZM132.155,75.512 C132.155,106.654 106.785,131.990 75.594,131.990 C44.409,131.990 19.046,106.654 19.046,75.512 C19.046,44.367 44.409,19.032 75.594,19.032 C93.546,19.032 109.532,27.450 119.902,40.517 L77.375,82.989 L51.805,57.444 C48.770,54.414 43.855,54.414 40.817,57.444 C37.782,60.474 37.782,65.387 40.817,68.418 L71.878,99.444 C73.336,100.894 75.314,101.712 77.375,101.712 C79.437,101.712 81.412,100.894 82.877,99.444 L128.007,54.373 C130.658,60.908 132.155,68.037 132.155,75.512 Z"/>
</g>
</svg>
